<?xml version="1.0" encoding="utf-8"?>
<!-- Generator: Adobe Illustrator 19.0.0, SVG Export Plug-In . SVG Version: 6.00 Build 0)  -->
<svg version="1.1" id="Layer_1" xmlns="http://www.w3.org/2000/svg" xmlns:xlink="http://www.w3.org/1999/xlink" x="0px" y="0px"
	 viewBox="-156 264.5 298.5 265.5" style="enable-background:new -156 264.5 298.5 265.5;" xml:space="preserve">
<style type="text/css">
	.st0{opacity:0.25;}
	.st1{fill:#191919;}
	.st2{fill:#DD4545;}
	.st3{fill:#932E2E;}
	.st4{fill:#D5D5D5;}
	.st5{fill:none;}
	.st6{fill:#465AA7;}
	.st7{fill:#E5E5E4;}
	.st8{fill:#BCBCBC;}
	.st9{fill:#A4A4A4;}
	.st10{fill:#B7B7B7;}
	.st11{fill:#575757;}
	.st12{fill:#6D6E6E;}
	.st13{fill:#FAEA2A;}
	.st14{fill:#B5A426;}
	.st15{fill:#3F4040;}
	.st16{fill:#75BBE1;}
	.st17{fill:#9A6B29;}
	.st18{fill:#68461B;}
	.st19{fill:#67B945;}
	.st20{fill:#7F742E;}
	.st21{clip-path:url(#SVGID_2_);}
	.st22{fill:#231F20;}
</style>
<g>
	<g>
		<g>
			<g>
				<g>
					<g>
						<g class="st0">
							
								<rect x="-41.4" y="309.2" transform="matrix(0.7071 0.7071 -0.7071 0.7071 288.2177 100.7971)" class="st1" width="127.6" height="178.3"/>
						</g>
						<g class="st0">
							<polygon class="st1" points="-24.7,505.4 -14.3,505.6 -14.3,505.7 -14,516.1 -8.9,511 4.5,524.5 130.6,398.3 130.6,380.4 
								4.5,506.5 -85.7,416.3 -85.7,434.3 -19.7,500.3 							"/>
						</g>
						<g>
							<g>
								
									<rect x="-51.9" y="291.5" transform="matrix(-0.7071 -0.7071 0.7071 -0.7071 -248.8731 658.3085)" class="st2" width="127.6" height="178.3"/>
							</g>
							<g>
								<polygon class="st3" points="120,362.7 120,380.7 -6.1,506.8 -6.1,488.9 								"/>
							</g>
							<g>
								<polygon class="st4" points="-96.4,398.7 -96.4,416.6 -6.1,506.8 -6.1,488.9 								"/>
							</g>
							<g>
								
									<rect x="-51.9" y="291.5" transform="matrix(-0.7071 -0.7071 0.7071 -0.7071 -248.8731 658.3085)" class="st5" width="127.6" height="178.3"/>
							</g>
							<g>
								<polygon class="st5" points="-96.4,398.7 -96.4,416.6 -6.1,506.8 -6.1,488.9 								"/>
							</g>
							<g>
								<polygon class="st6" points="-25.1,477.5 -14.4,488.3 -24.6,498.4 -24.9,488 -35.3,487.7 								"/>
							</g>
							<g>
								<polygon class="st5" points="-25.1,477.5 -14.4,488.3 -24.6,498.4 -24.9,488 -35.3,487.7 								"/>
							</g>
						</g>
					</g>
					<g>
						<g class="st0">
							<path class="st1" d="M-41.5,346.6L-41.5,346.6l30.1-24l-10-12.5l-30.1,24l0,0c-5.7-2.4-12.5-1.8-17.7,2.4
								c-1.6,1.3-2.9,2.8-3.9,4.4l0,0l-31.6,4.3l0,0c-4.2-4.6-11.4-5.3-16.4-1.3c-3.2,2.5-4.7,6.3-4.5,10.1l-17.2,13.7l3.4,4.2
								l-0.3,0.2l-1.4,1.1l-1.4,1.1l-1.4,1.1l-1.4,1.1l-1,0.8l0.1,0.4l0.2,1.3l0.3,1.9l2-1.6l1.4-1.1l1.4-1.1l1.4-1.1l1.4-1.1
								l0.7-0.5l3.4,4.2l17.2-13.7l0,0c3.6,1,7.7,0.4,10.8-2.2c1.4-1.2,2.5-2.6,3.3-4.1c-0.1,0.1-0.1,0.3-0.2,0.4l28.1-3.8
								c0-0.1,0-0.1,0-0.2c0.6,2,1.6,3.9,3,5.7l-58.4,46.6l3.4,4.3l-7.2,5.7l-0.5,4.3l9.6-7.6l3.4,4.3l64-51.1c0,0,0,0-0.1,0
								c3.5-0.1,7.1-1.4,10.1-3.8C-42.5,359.3-40.3,352.7-41.5,346.6z M-101.6,354.6c0-0.1,0-0.3,0-0.4
								C-101.6,354.3-101.6,354.4-101.6,354.6z M-122.6,361.2c-0.1-0.1-0.2-0.3-0.4-0.4c-0.1-0.1-0.2-0.3-0.3-0.4
								c0.1,0.2,0.2,0.3,0.3,0.4C-122.9,361-122.7,361.1-122.6,361.2z M-119,364.1C-119,364-119,364-119,364.1
								C-119,364-119,364-119,364.1z M-120.1,363.4c-0.1,0-0.1-0.1-0.2-0.1C-120.2,363.4-120.1,363.4-120.1,363.4z M-102,350.1
								c0,0.2,0.1,0.3,0.1,0.5C-101.9,350.4-101.9,350.3-102,350.1z M-102.4,349c0.1,0.2,0.1,0.3,0.2,0.5
								C-102.2,349.3-102.3,349.1-102.4,349z M-102.1,349.6c0,0.1,0.1,0.2,0.1,0.4C-102.1,349.8-102.1,349.7-102.1,349.6z
								 M-104.2,345.8c0.1,0.1,0.2,0.3,0.3,0.4C-103.9,346.1-104.1,345.9-104.2,345.8c-0.1-0.1-0.2-0.2-0.3-0.4
								C-104.4,345.6-104.3,345.7-104.2,345.8z M-101.6,354.1c0-0.2,0-0.3,0-0.5C-101.6,353.7-101.6,353.9-101.6,354.1z
								 M-101.5,353.4c0-0.1,0-0.2,0-0.4C-101.5,353.1-101.5,353.3-101.5,353.4z M-101.6,352.8c0-0.1,0-0.3,0-0.4
								C-101.6,352.5-101.6,352.7-101.6,352.8z M-101.6,352.3c0-0.2,0-0.3-0.1-0.5C-101.6,352-101.6,352.2-101.6,352.3z
								 M-101.7,351.7c0-0.1,0-0.2-0.1-0.4C-101.7,351.4-101.7,351.5-101.7,351.7z M-101.7,351.1c0-0.2-0.1-0.3-0.1-0.5
								C-101.8,350.8-101.8,351-101.7,351.1z M-102.4,348.9c-0.1-0.2-0.1-0.3-0.2-0.5C-102.5,348.6-102.4,348.8-102.4,348.9z
								 M-102.6,348.3c-0.1-0.1-0.1-0.2-0.2-0.4C-102.8,348.1-102.7,348.2-102.6,348.3z M-102.9,347.8c-0.1-0.2-0.1-0.3-0.2-0.5
								C-103,347.5-103,347.6-102.9,347.8z M-103.1,347.3c-0.1-0.2-0.2-0.3-0.3-0.5C-103.3,347-103.2,347.2-103.1,347.3z
								 M-103.5,346.7c-0.1-0.1-0.2-0.2-0.2-0.3C-103.7,346.5-103.6,346.6-103.5,346.7z M-124.8,357.6c0-0.1,0-0.1-0.1-0.2
								C-124.9,357.4-124.8,357.5-124.8,357.6z M-125.2,356.3C-125.2,356.2-125.2,356.2-125.2,356.3
								C-125.2,356.2-125.2,356.2-125.2,356.3z M-125.3,355.8C-125.3,355.8-125.3,355.7-125.3,355.8
								C-125.3,355.7-125.3,355.8-125.3,355.8z M-123.9,359.4c0.1,0.1,0.1,0.2,0.2,0.3C-123.8,359.6-123.9,359.5-123.9,359.4z
								 M-124.7,357.8c0,0.1,0.1,0.2,0.1,0.2S-124.7,357.9-124.7,357.8z M-124.5,358.3c0,0.1,0.1,0.2,0.1,0.3
								C-124.4,358.5-124.5,358.4-124.5,358.3z M-124.3,358.8c0.1,0.2,0.2,0.3,0.2,0.5C-124.1,359.1-124.2,358.9-124.3,358.8z
								 M-123.4,360.2c-0.1-0.1-0.1-0.2-0.2-0.3C-123.6,360-123.5,360.1-123.4,360.2z M-122.1,361.8c0.1,0.1,0.2,0.2,0.3,0.3
								C-121.9,362-122,361.9-122.1,361.8z M-122.5,361.4c0.1,0.1,0.2,0.2,0.3,0.3C-122.3,361.6-122.4,361.5-122.5,361.4z
								 M-120.5,363.2c-0.1,0-0.1-0.1-0.2-0.1C-120.6,363.1-120.5,363.1-120.5,363.2z M-120.9,362.9c-0.1-0.1-0.2-0.1-0.2-0.2
								C-121,362.7-121,362.8-120.9,362.9z M-121.3,362.5c-0.1-0.1-0.3-0.2-0.4-0.3C-121.6,362.3-121.4,362.4-121.3,362.5z
								 M-118.6,364.2L-118.6,364.2L-118.6,364.2z M-102.5,358.1c0,0.1-0.1,0.2-0.1,0.3C-102.6,358.3-102.6,358.2-102.5,358.1z
								 M-101.6,354.8c0,0.1,0,0.2,0,0.3C-101.7,355-101.7,354.9-101.6,354.8z M-101.7,355.3c0,0.2-0.1,0.3-0.1,0.5
								C-101.8,355.6-101.7,355.4-101.7,355.3z M-101.8,355.9c0,0.1-0.1,0.3-0.1,0.4C-101.9,356.1-101.9,356-101.8,355.9z
								 M-102,356.5c0,0.1-0.1,0.2-0.1,0.3C-102,356.7-102,356.6-102,356.5z M-102.1,357c-0.1,0.2-0.1,0.3-0.2,0.5
								C-102.2,357.3-102.2,357.1-102.1,357z M-102.3,357.5c0,0.1-0.1,0.2-0.1,0.4C-102.4,357.8-102.4,357.7-102.3,357.5z
								 M-49.7,335.1L-49.7,335.1L-49.7,335.1z M-48,336.2C-48,336.3-47.9,336.3-48,336.2C-47.9,336.3-48,336.3-48,336.2z
								 M-47.2,336.8c0.1,0.1,0.1,0.1,0.2,0.2C-47.1,337-47.2,336.9-47.2,336.8z M-46.5,337.5c0.1,0.1,0.1,0.1,0.2,0.2
								C-46.4,337.6-46.5,337.6-46.5,337.5z M-45.8,338.2c0.1,0.1,0.1,0.1,0.2,0.2C-45.7,338.4-45.7,338.3-45.8,338.2z M-67.1,364.9
								c-0.1,0-0.2-0.1-0.2-0.1C-67.2,364.8-67.2,364.9-67.1,364.9z M-68.1,364.3L-68.1,364.3L-68.1,364.3z M-42,344.7L-42,344.7
								L-42,344.7z M-41.7,345.7L-41.7,345.7L-41.7,345.7z M-42.8,342.8C-42.8,342.8-42.8,342.7-42.8,342.8
								C-42.8,342.7-42.8,342.8-42.8,342.8z M-43.2,341.9c0-0.1-0.1-0.2-0.1-0.2C-43.3,341.8-43.2,341.9-43.2,341.9z M-43.7,341.1
								c-0.1-0.1-0.1-0.2-0.2-0.3C-43.8,340.9-43.7,341-43.7,341.1z M-44.2,340.2c-0.1-0.1-0.1-0.2-0.2-0.2
								C-44.3,340.1-44.3,340.2-44.2,340.2z M-50.5,334.6C-50.6,334.6-50.6,334.6-50.5,334.6C-50.6,334.6-50.6,334.6-50.5,334.6z
								 M-75.6,347.7c0,0.1,0,0.2,0,0.2C-75.6,347.8-75.6,347.7-75.6,347.7z M-74,342.5L-74,342.5L-74,342.5z M-74.4,343.3
								c0,0.1-0.1,0.1-0.1,0.2C-74.4,343.5-74.4,343.4-74.4,343.3z M-74.7,344.2c0,0.1-0.1,0.2-0.1,0.3
								C-74.8,344.3-74.7,344.2-74.7,344.2z M-75,345c0,0.1-0.1,0.2-0.1,0.3C-75,345.2-75,345.1-75,345z M-75.2,345.9
								c0,0.1,0,0.2-0.1,0.3C-75.3,346.1-75.2,346-75.2,345.9z M-75.4,346.8c0,0.1,0,0.2-0.1,0.3C-75.4,346.9-75.4,346.8-75.4,346.8
								z M-75.2,354.1c0,0.1,0,0.2,0.1,0.3C-75.2,354.3-75.2,354.2-75.2,354.1z M-75.7,348.6v0.1C-75.7,348.7-75.7,348.7-75.7,348.6
								z M-75.7,350.6v0.1V350.6z M-75.6,351.5c0,0.1,0,0.2,0,0.2C-75.6,351.6-75.6,351.6-75.6,351.5z M-75.5,352.4
								c0,0.1,0,0.2,0,0.3C-75.5,352.5-75.5,352.5-75.5,352.4z M-75.4,353.2c0,0.1,0,0.2,0.1,0.3C-75.4,353.4-75.4,353.3-75.4,353.2
								z M-71.1,361.7c-0.1-0.1-0.1-0.2-0.2-0.2C-71.2,361.6-71.2,361.6-71.1,361.7z M-68.9,363.7c-0.1-0.1-0.1-0.1-0.2-0.2
								C-69,363.6-69,363.6-68.9,363.7z M-69.6,363.1c-0.1-0.1-0.2-0.2-0.3-0.2C-69.8,362.9-69.7,363-69.6,363.1z M-70.4,362.4
								c-0.1-0.1-0.2-0.2-0.3-0.2C-70.5,362.3-70.5,362.4-70.4,362.4z M-66.5,365.2c0.1,0,0.2,0.1,0.3,0.1
								C-66.3,365.3-66.4,365.3-66.5,365.2z M-65.6,365.6c0.1,0,0.2,0.1,0.3,0.1C-65.5,365.7-65.5,365.7-65.6,365.6z M-60.8,367
								c0.1,0,0.2,0,0.3,0C-60.7,367.1-60.7,367.1-60.8,367z M-64.7,366c0.1,0,0.1,0.1,0.2,0.1C-64.6,366.1-64.6,366.1-64.7,366z
								 M-62.7,366.7c0.1,0,0.2,0,0.2,0.1C-62.5,366.7-62.6,366.7-62.7,366.7z M-61.8,366.9c0.1,0,0.2,0,0.3,0.1
								C-61.6,366.9-61.7,366.9-61.8,366.9z M-59.8,367.2c0.1,0,0.1,0,0.2,0C-59.7,367.2-59.8,367.2-59.8,367.2z"/>
						</g>
						<g>
							<g>
								<circle class="st7" cx="-53.8" cy="337.5" r="17.3"/>
							</g>
							<g>
								<circle class="st8" cx="-53.8" cy="337.5" r="6.6"/>
							</g>
							<g>
								<path class="st9" d="M-67.3,348.2l-58.4,46.6l8.7,10.9l64-51.1C-58.4,355-63.7,352.7-67.3,348.2z"/>
							</g>
							<g>
								<circle class="st7" cx="-108.9" cy="340.8" r="12"/>
							</g>
							<g>
								<circle class="st10" cx="-108.9" cy="340.8" r="5.2"/>
							</g>
							<g>
								<path class="st9" d="M-118.3,348.3c-1.6-2-2.5-4.4-2.6-6.8l-17.2,13.7l8.7,10.9l17.2-13.7
									C-114.6,351.7-116.7,350.4-118.3,348.3z"/>
							</g>
							<g>
								<g>
									<path class="st9" d="M-99.5,333.3c3.1,3.9,3.4,9.1,1.2,13.2l28.1-3.8c-1.5-4.8-0.9-10,1.8-14.3l-31.6,4.3
										C-99.9,332.9-99.7,333.1-99.5,333.3z"/>
								</g>
							</g>
							<g>
								<path class="st11" d="M-40.3,326.7c1.8,2.3,2.9,4.8,3.4,7.5l30.1-24l-10-12.5l-30.1,24C-44.4,322.8-42.1,324.5-40.3,326.7z"
									/>
							</g>
							<g>
								<polygon class="st12" points="-120.4,401.5 -130,409.2 -129.5,404.9 -122.3,399.1 								"/>
							</g>
							<g class="st0">
								<g>
									<polygon class="st1" points="-133.5,362.4 -137.8,361.9 -139.3,363 -134.9,363.5 									"/>
								</g>
								<g>
									<polygon class="st1" points="-132.8,361.9 -133.4,361.1 -136.4,360.8 -137.8,361.9 -133.5,362.4 									"/>
								</g>
								<g>
									<polygon class="st1" points="-134.9,363.5 -139.3,363 -140.7,364.2 -136.3,364.7 									"/>
								</g>
								<g>
									<polygon class="st1" points="-134.5,359.7 -135,359.6 -136.4,360.8 -133.4,361.1 									"/>
								</g>
								<g>
									<polygon class="st1" points="-134.7,359.4 -135,359.6 -134.5,359.7 									"/>
								</g>
								<g>
									<polygon class="st1" points="-136.3,364.7 -140.7,364.2 -141.7,365 -141.7,365.4 -137.7,365.8 									"/>
								</g>
								<g>
									<polygon class="st1" points="-141.5,366.7 -141.2,368.6 -139.2,367 									"/>
								</g>
								<g>
									<polygon class="st1" points="-137.7,365.8 -141.7,365.4 -141.5,366.7 -139.2,367 									"/>
								</g>
							</g>
						</g>
					</g>
					<g>
						<g class="st0">
							<path class="st1" d="M-82.4,450.2l-54.7,18.3l55.5,18.4l0,0l-32.5-10.8v11.7c0,6.2,14.5,11.3,32.5,11.3
								c10.5,0,19.9-1.7,25.8-4.4v13v0.1c-2.8,0.3-4.9,2.6-4.9,5.4c0,3,2.4,5.4,5.4,5.4s5.4-2.4,5.4-5.4c0-2.7-2-5-4.6-5.4v-0.1V494
								c3.3-1.8,5.2-3.9,5.2-6.1v-11.7l22.4-7.5L-82.4,450.2z"/>
						</g>
						<g>
							<g>
								<g>
									<polygon class="st13" points="-86.3,479.1 -141.8,460.7 -87.1,442.3 -31.6,460.7 									"/>
								</g>
							</g>
							<g>
								<g>
									<path class="st1" d="M-86.7,463.3c-2.8,0-4.8-1.1-4.8-2.6c0-1.7,2.4-2.6,4.8-2.6h0.1c2.8,0,4.8,1.1,4.8,2.6
										C-81.9,462.2-83.9,463.3-86.7,463.3z M-86.6,459.5L-86.6,459.5c-2.2,0-3.5,0.8-3.5,1.2c0,0.3,1.2,1.2,3.4,1.2
										c2.1,0,3.4-0.8,3.4-1.2C-83.3,460.3-84.6,459.5-86.6,459.5z"/>
								</g>
							</g>
							<g>
								<g>
									<path class="st1" d="M-59.9,470.9c-0.1,0-0.2,0-0.3,0l-22.9-8.9c-0.4-0.1-0.5-0.6-0.4-0.9c0.1-0.4,0.6-0.5,0.9-0.4
										l22.9,8.9c0.4,0.1,0.5,0.6,0.4,0.9C-59.3,470.8-59.6,470.9-59.9,470.9z"/>
								</g>
							</g>
							<g>
								<g>
									<path class="st14" d="M-86.3,479.1l-32.5-10.8V480c0,6.2,14.5,11.3,32.5,11.3s32.5-5,32.5-11.3v-11.7L-86.3,479.1z"/>
								</g>
							</g>
							<g>
								<g>
									<path class="st1" d="M-59.9,500.5c-0.4,0-0.7-0.3-0.7-0.7v-29.5c0-0.4,0.3-0.7,0.7-0.7c0.4,0,0.7,0.3,0.7,0.7v29.5
										C-59.2,500.1-59.5,500.5-59.9,500.5z"/>
								</g>
							</g>
							<g>
								<g>
									<circle class="st15" cx="-60" cy="505.3" r="5.4"/>
								</g>
							</g>
						</g>
					</g>
					<g>
						<g class="st0">
							<path class="st1" d="M98.1,349.4c17.4,0,31.5-14.1,31.5-31.5c0-3.7-0.7-7.3-1.9-10.7l0,0l0,0c-0.2-0.7-0.5-1.3-0.8-2
								c0,0,0,0,0-0.1c-0.3-0.6-0.6-1.3-0.9-1.9c0,0,0,0,0-0.1c-0.2-0.3-0.3-0.6-0.5-0.9l0,0c-0.3-0.6-0.7-1.2-1.1-1.8
								c0,0,0-0.1-0.1-0.1c-0.4-0.6-0.8-1.1-1.2-1.7c0,0,0-0.1-0.1-0.1c-0.2-0.3-0.4-0.5-0.6-0.7c0,0,0,0,0-0.1
								c-0.4-0.5-0.9-1-1.3-1.5l-0.1-0.1c-0.5-0.5-0.9-1-1.4-1.4l-0.1-0.1c-0.2-0.2-0.5-0.4-0.7-0.6c0,0,0,0-0.1-0.1
								c-5.5-4.9-12.8-7.8-20.7-7.8c-17.4,0-31.5,14.1-31.5,31.5S80.7,349.4,98.1,349.4z"/>
						</g>
						<g class="st0">
							<path class="st1" d="M125.6,286.8l-3.6,4.1c7.8,6.9,12.2,16.7,12.2,27.1c0,19.9-16.2,36.1-36.1,36.1
								c-9.5,0-18.5-3.7-25.3-10.4l-3.8,3.8c7.8,7.7,18.2,11.9,29.1,11.9c11.1,0,21.5-4.3,29.4-12.2c7.8-7.8,12.2-18.3,12.2-29.4
								C139.7,306,134.5,294.6,125.6,286.8z"/>
						</g>
						<g class="st0">
							<polygon class="st1" points="99.8,380.3 101.6,380.3 101.6,359.4 98.1,359.4 98.1,380.3 							"/>
						</g>
						<g class="st0">
							<path class="st1" d="M96.5,380.5c-1,0.1-1.9,0.3-2.8,0.4c-1.1,0.2-2.2,0.5-3.2,0.9c-1.7,0.6-3.2,1.4-4.6,2.2
								c-1.8,1.2-3.3,2.7-4.3,4.3c-0.7,1.1-1.1,2.3-1.3,3.6c0,0.3-0.1,0.5-0.1,0.8h1.6h2.3h2.3h2.3H91h2.3h2.3h2.3h2.3h2.3h2.3h2.3
								h2.3h2.3h2.3h2.3h2.3h0.3c0-0.1,0-0.2,0-0.3c0-0.7-0.2-1.3-0.4-2c-0.2-0.6-0.4-1.1-0.7-1.6c-0.3-0.5-0.6-1-0.9-1.4
								s-0.7-0.8-1.1-1.3c-0.4-0.4-0.8-0.8-1.2-1.1c-0.4-0.3-0.9-0.7-1.3-1c-0.5-0.3-0.9-0.6-1.5-0.9c-0.5-0.3-1-0.5-1.6-0.8
								c-0.5-0.2-1.1-0.5-1.7-0.7c-0.6-0.2-1.2-0.4-1.8-0.6c-0.6-0.2-1.2-0.3-1.9-0.4c-0.7-0.1-1.3-0.2-2-0.3s-1.4-0.1-2.1-0.2
								c-0.5,0-1,0-1.5,0c-0.3,0-0.6,0-0.8,0C98.2,380.3,97.3,380.4,96.5,380.5z"/>
						</g>
						<g>
							<g>
								<g>
									<circle class="st16" cx="93.4" cy="310.1" r="31.5"/>
								</g>
								<g>
									<g>
										<path class="st17" d="M93.4,351.6c-11,0-21.3-4.2-29.1-11.9l3.8-3.9c6.8,6.7,15.8,10.4,25.3,10.4
											c19.9,0,36.1-16.2,36.1-36.1c0-10.3-4.4-20.2-12.2-27.1l3.6-4.1c8.9,7.9,14,19.2,14,31.1c0,11.1-4.3,21.5-12.2,29.4
											C115,347.3,104.5,351.6,93.4,351.6z"/>
									</g>
								</g>
								<g>
									<rect x="93.4" y="351.6" class="st18" width="3.4" height="20.9"/>
								</g>
								<g>
									<path class="st1" d="M114.7,384.7c0-0.7-0.2-1.3-0.4-2c-0.2-0.6-0.4-1.1-0.7-1.6c-0.3-0.5-0.6-1-0.9-1.4
										c-0.3-0.4-0.7-0.8-1.1-1.3c-0.4-0.4-0.8-0.8-1.2-1.1c-0.4-0.3-0.9-0.7-1.3-1c-0.5-0.3-0.9-0.6-1.5-0.9
										c-0.5-0.3-1-0.5-1.6-0.8c-0.5-0.2-1.1-0.5-1.7-0.7s-1.2-0.4-1.8-0.5c-0.6-0.2-1.2-0.3-1.9-0.4c-0.7-0.1-1.3-0.2-2-0.3
										s-1.4-0.1-2.1-0.2c-0.5,0-1,0-1.5,0c-0.3,0-0.6,0-0.8,0c-0.8,0-1.7,0.1-2.5,0.2c-0.9,0.1-1.9,0.3-2.8,0.4
										c-1.1,0.2-2.2,0.5-3.2,0.9c-1.7,0.6-3.2,1.4-4.6,2.2c-1.8,1.2-3.3,2.7-4.3,4.3c-0.7,1.1-1.1,2.3-1.3,3.6
										c0,0.3-0.1,0.5-0.1,0.8H77h2.3h2.3h2.3h2.3h2.3h2.3h2.3h2.3h2.3h2.3h2.3h2.3h2.3h2.3h2.3h2.3h0.3
										C114.7,384.8,114.7,384.8,114.7,384.7z"/>
								</g>
								<g>
									<path class="st19" d="M97.5,304.5c0.3,0.2,7.8,7.1,7.7,6.9c3,5.6-3.2,12.6-6.8,17.6c-1.7,2.3-2.6,4.7-5,5.9
										c-2.6-6-0.8-8.5-5-13.7C81.3,312.4,82.5,296.8,97.5,304.5z"/>
								</g>
								<g>
									<path class="st19" d="M123.2,301.2L123.2,301.2c0-0.6,0-1.2-0.2-1.8c-1.9-5.4-5.3-10.1-9.7-13.7c-3.9-1.5-6.1,0.6-10.5,2.8
										c-1.9,0.9-15.2,4.4-12.9,8.4c2.1,3.5,13.7,0.4,17.7,3c3.2,2,4.2,6.4,7.7,8.5C120.5,311.4,123.1,305.9,123.2,301.2z"/>
								</g>
							</g>
						</g>
					</g>
					<g>
						<g class="st0">
							<polygon class="st1" points="123.8,450.3 27.1,478.4 27.1,481.7 41.5,499.4 137.5,469.6 137.5,466.9 							"/>
						</g>
						<g>
							<g>
								<g>
									<polygon class="st13" points="132.8,459.1 36.8,488.4 22.4,470.6 119.1,442.4 									"/>
								</g>
								<g>
									<path class="st20" d="M124.7,456.2c0.7,0.8,0.3,1.8-0.9,2.1c-1.2,0.4-2.7,0-3.4-0.9c-0.7-0.8-0.3-1.8,0.9-2.2
										C122.5,455,124,455.4,124.7,456.2z"/>
								</g>
								<g>
									<g>
										<defs>
											<polygon id="SVGID_1_" points="132.8,459.1 36.8,488.4 22.4,470.6 119.1,442.4 											"/>
										</defs>
										<clipPath id="SVGID_2_">
											<use xlink:href="#SVGID_1_"  style="overflow:visible;"/>
										</clipPath>
										<g class="st21">
											<g>
												<g>
													<g>
														<path class="st22" d="M35.3,476.5c-0.2,0-0.4-0.1-0.5-0.3l-6.6-8.1c-0.2-0.3-0.2-0.7,0.1-1c0.3-0.2,0.7-0.2,1,0.1
															l6.6,8.1c0.2,0.3,0.2,0.7-0.1,1C35.6,476.5,35.4,476.5,35.3,476.5z"/>
													</g>
												</g>
												<g>
													<g>
														<path class="st22" d="M48.9,472.5c-0.2,0-0.4-0.1-0.5-0.3l-6.5-8c-0.2-0.3-0.2-0.7,0.1-1c0.3-0.2,0.7-0.2,1,0.1l6.5,8
															c0.2,0.3,0.2,0.7-0.1,1C49.2,472.4,49.1,472.5,48.9,472.5z"/>
													</g>
												</g>
												<g>
													<g>
														<path class="st22" d="M62.5,468.4c-0.2,0-0.4-0.1-0.5-0.3l-6.5-8c-0.2-0.3-0.2-0.7,0.1-1c0.3-0.2,0.7-0.2,1,0.1l6.5,8
															c0.2,0.3,0.2,0.7-0.1,1C62.8,468.4,62.7,468.4,62.5,468.4z"/>
													</g>
												</g>
												<g>
													<g>
														<path class="st22" d="M76.2,464.4c-0.2,0-0.4-0.1-0.5-0.3l-6.4-7.9c-0.2-0.3-0.2-0.7,0.1-1c0.3-0.2,0.7-0.2,1,0.1
															l6.4,7.9c0.2,0.3,0.2,0.7-0.1,1C76.5,464.3,76.3,464.4,76.2,464.4z"/>
													</g>
												</g>
												<g>
													<g>
														<path class="st22" d="M89.8,460.3c-0.2,0-0.4-0.1-0.5-0.3l-6.4-7.8c-0.2-0.3-0.2-0.7,0.1-1c0.3-0.2,0.7-0.2,1,0.1
															l6.4,7.8c0.2,0.3,0.2,0.7-0.1,1C90.1,460.3,89.9,460.3,89.8,460.3z"/>
													</g>
												</g>
												<g>
													<g>
														<path class="st22" d="M103.4,456.3c-0.2,0-0.4-0.1-0.5-0.3l-6.3-7.7c-0.2-0.3-0.2-0.7,0.1-1c0.3-0.2,0.7-0.2,1,0.1
															l6.3,7.7c0.2,0.3,0.2,0.7-0.1,1C103.7,456.2,103.6,456.3,103.4,456.3z"/>
													</g>
												</g>
												<g>
													<g>
														<path class="st22" d="M117,452.2c-0.2,0-0.4-0.1-0.5-0.3l-6.3-7.7c-0.2-0.3-0.2-0.7,0.1-1c0.3-0.2,0.7-0.2,1,0.1
															l6.3,7.7c0.2,0.3,0.2,0.7-0.1,1C117.3,452.2,117.2,452.2,117,452.2z"/>
													</g>
												</g>
											</g>
											<g>
												<g>
													<g>
														<path class="st22" d="M39,470.4c-0.2,0-0.4-0.1-0.5-0.3l-3.3-4c-0.2-0.3-0.2-0.7,0.1-1c0.3-0.2,0.7-0.2,1,0.1l3.3,4
															c0.2,0.3,0.2,0.7-0.1,1C39.3,470.4,39.2,470.4,39,470.4z"/>
													</g>
												</g>
												<g>
													<g>
														<path class="st22" d="M52,466.6c-0.2,0-0.4-0.1-0.5-0.3l-3.3-4c-0.2-0.3-0.2-0.7,0.1-1c0.3-0.2,0.7-0.2,1,0.1l3.3,4
															c0.2,0.3,0.2,0.7-0.1,1C52.3,466.6,52.1,466.6,52,466.6z"/>
													</g>
												</g>
												<g>
													<g>
														<path class="st22" d="M65.6,462.6c-0.2,0-0.4-0.1-0.5-0.3l-3.2-4c-0.2-0.3-0.2-0.7,0.1-1c0.3-0.2,0.7-0.2,1,0.1l3.2,4
															c0.2,0.3,0.2,0.7-0.1,1C65.9,462.6,65.8,462.6,65.6,462.6z"/>
													</g>
												</g>
												<g>
													<g>
														<path class="st22" d="M79.3,458.6c-0.2,0-0.4-0.1-0.5-0.3l-3.2-3.9c-0.2-0.3-0.2-0.7,0.1-1c0.3-0.2,0.7-0.2,1,0.1
															l3.2,3.9c0.2,0.3,0.2,0.7-0.1,1C79.6,458.5,79.4,458.6,79.3,458.6z"/>
													</g>
												</g>
												<g>
													<g>
														<path class="st22" d="M92.9,454.6c-0.2,0-0.4-0.1-0.5-0.3l-3.2-3.9c-0.2-0.3-0.2-0.7,0.1-1c0.3-0.2,0.7-0.2,1,0.1
															l3.2,3.9c0.2,0.3,0.2,0.7-0.1,1C93.2,454.5,93.1,454.6,92.9,454.6z"/>
													</g>
												</g>
												<g>
													<g>
														<path class="st22" d="M106.6,450.6c-0.2,0-0.4-0.1-0.5-0.3l-3.2-3.9c-0.2-0.3-0.2-0.7,0.1-1c0.3-0.2,0.7-0.2,1,0.1
															l3.2,3.9c0.2,0.3,0.2,0.7-0.1,1C106.9,450.5,106.7,450.6,106.6,450.6z"/>
													</g>
												</g>
											</g>
										</g>
									</g>
								</g>
							</g>
							<g>
								<polygon class="st14" points="36.8,488.4 36.8,491.6 132.8,461.8 132.8,459.1 								"/>
							</g>
							<g>
								<polygon class="st14" points="22.4,470.6 22.4,473.9 36.8,491.6 36.8,488.4 								"/>
							</g>
						</g>
					</g>
				</g>
			</g>
		</g>
	</g>
</g>
</svg>
