<?xml version="1.0" encoding="utf-8"?>
<!-- Generator: Adobe Illustrator 19.0.0, SVG Export Plug-In . SVG Version: 6.00 Build 0)  -->
<svg version="1.1" id="Layer_1" xmlns="http://www.w3.org/2000/svg" xmlns:xlink="http://www.w3.org/1999/xlink" x="0px" y="0px"
	 viewBox="179.1 338.1 651.1 255.8" style="enable-background:new 179.1 338.1 651.1 255.8;" xml:space="preserve">
<style type="text/css">
	.st0{fill:#DDDDDD;}
	.st1{fill:#8FC4D7;}
	.st2{fill:#F1F2F2;}
	.st3{fill:#0E303F;}
	.st4{fill:#A6DAE9;}
	.st5{fill:#2C4257;}
	.st6{fill:#9EBAD0;}
	.st7{fill:#EEFDFF;}
	.st8{fill:#DDECF6;}
	.st9{fill:#BCDAE5;}
	.st10{fill:#FFFFFF;}
	.st11{fill:#231F20;}
	.st12{fill:#FFF8FF;}
	.st13{fill:#DFDFE7;}
	.st14{fill:#D719D1;}
	.st15{fill:#FF6700;}
	.st16{fill:#69CBCC;}
	.st17{fill:none;stroke:#231F20;stroke-width:3.5705;stroke-miterlimit:10;}
	.st18{fill:#DFDDDB;}
	.st19{fill:#9E4A25;}
	.st20{opacity:0.1;enable-background:new    ;}
	.st21{fill:#893D22;}
	.st22{fill:#00C4D7;}
	.st23{fill:#FFAC32;}
	.st24{fill:#EB5A49;}
	.st25{fill:#FFFDFA;}
	.st26{fill:#E6E7E8;}
	.st27{opacity:0.3;fill:url(#SVGID_1_);enable-background:new    ;}
	.st28{opacity:0.3;fill:url(#SVGID_2_);enable-background:new    ;}
</style>
<g id="Objects">
	<g id="Design">
		<g>
			<g>
				<g>
					<rect x="178.9" y="567.2" class="st0" width="651.9" height="26.7"/>
				</g>
			</g>
			<g>
				<g>
					<g>
						<path class="st1" d="M505.8,529.2c-2.6,10.7-5.3,21.5-7.9,32.2c24.5,0,49.1,0,73.6,0c-2.6-10.8-5.3-21.5-7.9-32.2
							C544.3,529.2,525,529.2,505.8,529.2z"/>
						<path class="st2" d="M576,560.9h-82.7c-2.1,0-3.8,2-3.8,4.5v1.7h90.3v-1.7C579.8,562.9,578.1,560.9,576,560.9z"/>
						<path class="st2" d="M410.3,516.6v17.8c0,3.4,2.8,6.2,6.2,6.2h236.3c3.4,0,6.2-2.8,6.2-6.2v-17.8H410.3z"/>
						<path class="st3" d="M659,516.6V366.2c0-3.4-2.8-6.2-6.2-6.2H416.5c-3.4,0-6.2,2.8-6.2,6.2v150.4H659z"/>
						<rect x="420.5" y="369.7" class="st4" width="228.3" height="136.7"/>
					</g>
				</g>
				<g>
					<g>
						<path class="st5" d="M532.7,352.9c0,0-52.9-22.9-112.2-2c0,36.6,0,155.8,0,155.8h112.2h117c0,0,0-119.2,0-155.8
							C590.5,330,532.7,352.9,532.7,352.9z"/>
						<path class="st6" d="M532.8,350.4c0,0-50.2-22.3-106.3-1.9c0,35.8,0,152.2,0,152.2h106.3h110.9c0,0,0-116.4,0-152.2
							C587.6,328.1,532.8,350.4,532.8,350.4z"/>
						<path class="st7" d="M532.8,350.4c0,0,46.3-24.6,102.5-4.2c0,35.8,0,148.1,0,148.1H532.8V350.4z"/>
						<path class="st7" d="M532.8,350.4c0,0-46.3-24.6-102.5-4.2c0,35.8,0,148.1,0,148.1h102.5V350.4z"/>
						<path class="st8" d="M540.5,347c-5,1.9-7.7,3.4-7.7,3.4v143.9h7.7V347z"/>
					</g>
					<g>
						<g>
							<g>
								<path class="st9" d="M542.3,375.8v3.9c0,0,39-20,86.3-3.4c0-1.4,0-2.7,0-3.9C581.3,355.8,542.3,375.8,542.3,375.8z"/>
							</g>
							<g>
								<path class="st9" d="M542.3,385.8v3.9c0,0,39-20,86.3-3.4c0-1.4,0-2.7,0-3.9C581.3,365.7,542.3,385.8,542.3,385.8z"/>
							</g>
							<g>
								<path class="st9" d="M542.3,395.7v3.9c0,0,39-20,86.3-3.4c0-1.4,0-2.7,0-3.9C581.3,375.7,542.3,395.7,542.3,395.7z"/>
							</g>
							<g>
								<path class="st9" d="M542.3,405.6v3.9c0,0,39-20,86.3-3.4c0-1.4,0-2.7,0-3.9C581.3,385.6,542.3,405.6,542.3,405.6z"/>
							</g>
							<g>
								<path class="st9" d="M542.3,415.5v3.9c0,0,39-20,86.3-3.4c0-1.4,0-2.7,0-3.9C581.3,395.5,542.3,415.5,542.3,415.5z"/>
							</g>
							<g>
								<path class="st9" d="M542.3,425.4v3.9c0,0,39-20,86.3-3.4c0-1.4,0-2.7,0-3.9C581.3,405.4,542.3,425.4,542.3,425.4z"/>
							</g>
							<g>
								<path class="st9" d="M542.3,435.4v3.9c0,0,39-20,86.3-3.4c0-1.4,0-2.7,0-3.9C581.3,415.3,542.3,435.4,542.3,435.4z"/>
							</g>
							<g>
								<path class="st9" d="M542.3,445.3v3.9c0,0,39-20,86.3-3.4c0-1.4,0-2.7,0-3.9C581.3,425.3,542.3,445.3,542.3,445.3z"/>
							</g>
							<g>
								<path class="st9" d="M542.3,455.2v3.9c0,0,39-20,86.3-3.4c0-1.4,0-2.7,0-3.9C581.3,435.2,542.3,455.2,542.3,455.2z"/>
							</g>
							<g>
								<path class="st9" d="M542.3,465.1v3.9c0,0,39-20,86.3-3.4c0-1.4,0-2.7,0-3.9C581.3,445.1,542.3,465.1,542.3,465.1z"/>
							</g>
							<g>
								<path class="st9" d="M542.3,475v3.9c0,0,39-20,86.3-3.4c0-1.4,0-2.7,0-3.9C581.3,455,542.3,475,542.3,475z"/>
							</g>
							<g>
								<path class="st9" d="M542.3,485v3.9c0,0,39-20,86.3-3.4c0-1.4,0-2.7,0-3.9C581.3,464.9,542.3,485,542.3,485z"/>
							</g>
							<g>
								<path class="st9" d="M582,352.5c-23.8,1.6-39.7,9.7-39.7,9.7v6.9c0,0,15.9-8.1,39.7-9.7V352.5z"/>
							</g>
						</g>
					</g>
					<g>
						<path class="st9" d="M524.7,375.8v3.9c0,0-39-20-86.3-3.4c0-1.4,0-2.7,0-3.9C485.7,355.8,524.7,375.8,524.7,375.8z"/>
						<path class="st9" d="M524.7,385.8v3.9c0,0-39-20-86.3-3.4c0-1.4,0-2.7,0-3.9C485.7,365.7,524.7,385.8,524.7,385.8z"/>
						<path class="st9" d="M524.7,395.7v3.9c0,0-39-20-86.3-3.4c0-1.4,0-2.7,0-3.9C485.7,375.7,524.7,395.7,524.7,395.7z"/>
						<path class="st9" d="M524.7,405.6v3.9c0,0-39-20-86.3-3.4c0-1.4,0-2.7,0-3.9C485.7,385.6,524.7,405.6,524.7,405.6z"/>
						<path class="st9" d="M524.7,415.5v3.9c0,0-39-20-86.3-3.4c0-1.4,0-2.7,0-3.9C485.7,395.5,524.7,415.5,524.7,415.5z"/>
						<path class="st9" d="M524.7,425.4v3.9c0,0-39-20-86.3-3.4c0-1.4,0-2.7,0-3.9C485.7,405.4,524.7,425.4,524.7,425.4z"/>
						<path class="st9" d="M524.7,435.4v3.9c0,0-39-20-86.3-3.4c0-1.4,0-2.7,0-3.9C485.7,415.3,524.7,435.4,524.7,435.4z"/>
						<path class="st9" d="M524.7,445.3v3.9c0,0-39-20-86.3-3.4c0-1.4,0-2.7,0-3.9C485.7,425.3,524.7,445.3,524.7,445.3z"/>
						<path class="st9" d="M524.7,455.2v3.9c0,0-39-20-86.3-3.4c0-1.4,0-2.7,0-3.9C485.7,435.2,524.7,455.2,524.7,455.2z"/>
						<path class="st9" d="M524.7,465.1v3.9c0,0-39-20-86.3-3.4c0-1.4,0-2.7,0-3.9C485.7,445.1,524.7,465.1,524.7,465.1z"/>
						<path class="st9" d="M524.7,475v3.9c0,0-39-20-86.3-3.4c0-1.4,0-2.7,0-3.9C485.7,455,524.7,475,524.7,475z"/>
						<path class="st9" d="M524.7,485v3.9c0,0-39-20-86.3-3.4c0-1.4,0-2.7,0-3.9C485.7,464.9,524.7,485,524.7,485z"/>
						<path class="st9" d="M485,352.5c23.8,1.6,39.7,9.7,39.7,9.7v6.9c0,0-15.9-8.1-39.7-9.7V352.5z"/>
					</g>
				</g>
			</g>
			<g>
				<g>
					<path class="st10" d="M253.7,425.7h-3.1v-15.9c0-7.3-5.9-13.2-13.2-13.2c-7.3,0-13.2,5.9-13.2,13.2v15.9H221v-15.9
						c0-9,7.3-16.3,16.3-16.3s16.3,7.3,16.3,16.3v15.9H253.7z"/>
				</g>
				<g>
					<path class="st10" d="M283.1,425.7H280v-15.9c0-7.3-5.9-13.2-13.2-13.2c-7.3,0-13.2,5.9-13.2,13.2v15.9h-3.1v-15.9
						c0-9,7.3-16.3,16.3-16.3s16.3,7.3,16.3,16.3V425.7z"/>
				</g>
				<g>
					<rect x="206.4" y="429.9" class="st11" width="3.1" height="70.9"/>
				</g>
				<g>
					<rect x="296.6" y="429.9" class="st11" width="3.1" height="70.9"/>
				</g>
				<g>
					<path class="st12" d="M232.8,413.9h-0.4h-17.2h-0.5v0.1c-1,0.2-1.7,1.1-1.7,2.1s0.7,1.9,1.7,2.1v59l0.1,2.2l0.3,1
						c1,3.8,4.4,5.6,8.5,5.6c4.1,0,7.5-1.8,8.5-5.6l0.3-1v-61.2h0.4c1.2,0,2.2-1,2.2-2.2C235,414.8,234,413.9,232.8,413.9z"/>
					<path class="st13" d="M232.8,413.9h-0.4H224V486c3.9-0.2,8.4-1.6,8.4-6.6c0-2.9,0-61.2,0-61.2h0.4c1.2,0,2.2-1,2.2-2.2
						C235,414.8,234,413.9,232.8,413.9z"/>
					<path class="st14" d="M229.2,476.5c0,2.8-2.3,5.1-5.2,5.1c-2.8,0-5.1-2.3-5.1-5.1l-0.1-2.5v-43.1h10.4V476.5z"/>
				</g>
				<g>
					<path class="st12" d="M260.9,413.9h-0.4h-17.2h-0.5v0.1c-1,0.2-1.7,1.1-1.7,2.1s0.7,1.9,1.7,2.1v59l0.1,2.2l0.3,1
						c1,3.8,4.4,5.6,8.5,5.6s7.5-1.8,8.5-5.6l0.3-1v-61.2h0.4c1.2,0,2.2-1,2.2-2.2C263.1,414.8,262.1,413.9,260.9,413.9z"/>
					<path class="st13" d="M260.9,413.9h-0.4h-8.4V486c3.9-0.2,8.4-1.6,8.4-6.6c0-2.9,0-61.2,0-61.2h0.4c1.2,0,2.2-1,2.2-2.2
						C263.1,414.8,262.1,413.9,260.9,413.9z"/>
					<path class="st15" d="M257.3,476.5c0,2.8-2.3,5.1-5.2,5.1c-2.8,0-5.1-2.3-5.1-5.1l-0.1-2.5v-43.1h10.4L257.3,476.5L257.3,476.5
						z"/>
				</g>
				<g>
					<path class="st12" d="M290.4,413.9H290h-17.2h-0.5v0.1c-1,0.2-1.7,1.1-1.7,2.1s0.7,1.9,1.7,2.1v59l0.1,2.2l0.3,1
						c1,3.8,4.4,5.6,8.5,5.6s7.5-1.8,8.5-5.6l0.3-1v-61.2h0.4c1.2,0,2.2-1,2.2-2.2C292.6,414.8,291.6,413.9,290.4,413.9z"/>
					<path class="st13" d="M290.4,413.9H290h-8.4V486c3.9-0.2,8.4-1.6,8.4-6.6c0-2.9,0-61.2,0-61.2h0.4c1.2,0,2.2-1,2.2-2.2
						C292.6,414.8,291.6,413.9,290.4,413.9z"/>
					<path class="st16" d="M286.8,476.5c0,2.8-2.3,5.1-5.2,5.1c-2.8,0-5.1-2.3-5.1-5.1l-0.1-2.5v-43.1h10.4L286.8,476.5L286.8,476.5
						z"/>
				</g>
				<line class="st17" x1="197.9" y1="429.9" x2="306.6" y2="429.9"/>
				<g>
					<polygon class="st11" points="300.4,505.4 295.8,505.4 295.8,503.1 204.3,503.1 204.3,505.4 199.6,505.4 199.6,498.4 
						300.4,498.4 					"/>
				</g>
			</g>
			<g>
				<rect x="369" y="444.7" class="st10" width="21.8" height="43.6"/>
				<path class="st18" d="M369,462.1v26.2c-3-4.5-7.1-7.3-11.7-7.3c-9.1,0-16.5,11.1-16.5,24.7c0,10,3.9,18.6,9.6,22.5h4.3v-6.5H369
					v3.3h-3.9v24.2c-19.2-2.3-34.2-20.8-34.2-43.4C330.9,481.7,348,462.1,369,462.1z"/>
				<rect x="374.1" y="525.5" class="st5" width="11.8" height="8.7"/>
				<rect x="354.8" y="528.2" class="st5" width="36" height="3.3"/>
				<rect x="354.8" y="517.3" class="st5" width="47.7" height="4.4"/>
				<rect x="372.2" y="488.3" class="st18" width="15.5" height="13.6"/>
				<rect x="372.2" y="431.1" class="st18" width="15.5" height="13.6"/>
				<rect x="371.2" y="427.6" class="st5" width="17.4" height="3.5"/>
				<g>
					<path class="st10" d="M376.7,510.6c0,0.6,0.2,1.1,0.6,1.5c0.4,0.4,1,0.6,1.5,0.6h2.2c0.6,0,1.1-0.2,1.5-0.6
						c0.4-0.4,0.6-1,0.6-1.5v-8.7h-6.5L376.7,510.6L376.7,510.6z"/>
					<g>
						<g>
							<g>
								<polygon class="st5" points="372.2,501.9 399,491.2 397.5,487.3 370.7,498.1 								"/>
							</g>
							<g>
								<polygon class="st5" points="399,491.2 387.8,501.9 372.2,501.9 								"/>
							</g>
						</g>
					</g>
					<path class="st10" d="M397.1,505.1c0.4,0.4,0.9,0.7,1.5,0.7s1.2-0.2,1.6-0.6l1.6-1.5c0.4-0.4,0.7-0.9,0.7-1.5s-0.2-1.2-0.6-1.6
						l-6-6.3l-4.7,4.5L397.1,505.1z"/>
				</g>
				<path class="st5" d="M330.9,554.1h31.3v-15.7c0-1.6-0.6-3.1-1.8-4.3c-1.2-1.2-2.8-1.8-4.3-1.8H356c-0.8,0-1.5,0.1-2.3,0.4
					s-1.4,0.7-2,1.3L330.9,554.1z"/>
				<path class="st5" d="M412.7,558.5c0.8,0,1.6,0.3,2.2,0.9c0.6,0.6,0.9,1.4,0.9,2.2v5.7h-10.9l0,0c0-0.3-0.1-0.7-0.4-0.9
					c-0.3-0.3-0.6-0.4-0.9-0.4h-73.7c-0.3,0-0.7,0.1-0.9,0.4c-0.3,0.3-0.4,0.6-0.4,0.9l0,0h-10.9v-5.7c0-0.8,0.3-1.6,0.9-2.2
					c0.6-0.6,1.4-0.9,2.2-0.9H412.7z"/>
				<path class="st5" d="M323.1,558.5h87.3v-2.2c0-0.6-0.2-1.1-0.6-1.5c-0.4-0.4-1-0.6-1.5-0.6h-82.9c-0.6,0-1.1,0.2-1.5,0.6
					c-0.4,0.4-0.6,1-0.6,1.5v2.2H323.1z"/>
				<path class="st10" d="M354.3,538.4c0,1,0.8,1.7,1.7,1.7c1,0,1.7-0.8,1.7-1.7c0-1-0.8-1.7-1.7-1.7
					C355.1,536.7,354.3,537.4,354.3,538.4z"/>
				<g>
					<path class="st5" d="M359.3,462.1c0,5.4,4.4,9.8,9.8,9.8s9.8-4.4,9.8-9.8c0-5.4-4.4-9.8-9.8-9.8S359.3,456.7,359.3,462.1z"/>
					<path class="st10" d="M364.9,462.1c0,2.3,1.8,4.1,4.1,4.1c2.3,0,4.1-1.8,4.1-4.1c0-2.3-1.9-4.1-4.1-4.1
						S364.9,459.9,364.9,462.1z"/>
				</g>
			</g>
			<g>
				<path class="st5" d="M614.5,526.2v14.5c0,11.3,9.2,20.5,20.5,20.5h6.6c11.3,0,20.5-9.2,20.5-20.5v-14.5H614.5z"/>
				<path class="st19" d="M615.1,567.2h46.2c1.6-0.9,3.8-3,5.6-6h-57.5C610.9,563.7,612.5,565.4,615.1,567.2z"/>
				<g>
					<g>
						<path class="st5" d="M660.9,545.4c-0.2,0-0.3,0-0.5,0l0.1-3.3c3.9,0.1,6.6-2.2,7.6-4.3c0.9-1.6,0.9-3.2,0.1-4.3
							c-2.2-2.9-6.7,0.2-6.9,0.4l-1.9-2.7c2.5-1.8,8.1-3.9,11.4,0.3c1.6,2.1,1.7,5,0.2,7.8C669.1,543,665.2,545.3,660.9,545.4z"/>
					</g>
				</g>
				<path class="st20" d="M638.2,561.2h3.3c11.3,0,20.5-9.2,20.5-20.5v-14.5h-23.8V561.2z"/>
				<path class="st21" d="M638.2,567.2h23.1c1.6-0.9,3.8-3,5.6-6h-28.7L638.2,567.2L638.2,567.2z"/>
			</g>
			<g>
				<g>
					<rect x="179.1" y="538.2" class="st5" width="135.7" height="29"/>
					<rect x="187" y="549.8" class="st22" width="59.4" height="7.5"/>
					<rect x="252.3" y="538.3" class="st23" width="20.5" height="28.9"/>
					<rect x="279.4" y="538.3" class="st23" width="20.5" height="28.9"/>
					<rect x="202.3" y="523" class="st24" width="112.6" height="15.2"/>
					<rect x="212.8" y="527.6" class="st25" width="91.4" height="6"/>
					<rect x="188.7" y="506" class="st16" width="126.1" height="16.9"/>
					<path class="st10" d="M304.9,519.1c2.5,0,4.6-2.1,4.6-4.6s-2.1-4.6-4.6-4.6s-4.6,2.1-4.6,4.6
						C300.3,517,302.3,519.1,304.9,519.1"/>
					<path class="st10" d="M292.7,519.1c2.5,0,4.6-2.1,4.6-4.6s-2.1-4.6-4.6-4.6s-4.6,2.1-4.6,4.6
						C288.2,517,290.2,519.1,292.7,519.1"/>
					<rect x="188.7" y="513.2" class="st10" width="89.4" height="2.6"/>
				</g>
				<polygon class="st20" points="179.1,538.2 314.8,567.2 179.1,567.2 				"/>
				<polygon class="st20" points="202.3,522.8 314.8,538.2 202.3,538.2 				"/>
				<polygon class="st20" points="188.7,506 314.8,523 188.7,523 				"/>
			</g>
		</g>
		<g>
			<g>
				<g>
					<circle class="st10" cx="655.5" cy="405" r="10.1"/>
					<path class="st26" d="M690.8,415.2c4.5-18.9-6.6-38.3-25.5-43.8s-38.6,4.8-45,23.2L690.8,415.2z"/>
					<path class="st3" d="M674.3,375.9c0,6.2-5,11.2-11.2,11.2l0,0c-6.2,0-11.2-5-11.2-11.2V362c0-6.2,5-11.2,11.2-11.2l0,0
						c6.2,0,11.2,5,11.2,11.2V375.9z"/>
				</g>
				<g>
					<g>
						<polygon class="st3" points="693.7,371.2 671,371.2 671,366.7 692,366.7 710.2,350.8 714.3,353.1 						"/>
					</g>
				</g>
				<g>
					<path class="st3" d="M815.6,432.8c-8.1,0-14.6-6.6-14.6-14.6c0-8.1,6.6-14.6,14.6-14.6c8.1,0,14.6,6.6,14.6,14.6
						C830.3,426.3,823.7,432.8,815.6,432.8z M815.6,408.1c-5.6,0-10.1,4.5-10.1,10.1s4.5,10.1,10.1,10.1s10.1-4.5,10.1-10.1
						C825.7,412.6,821.2,408.1,815.6,408.1z"/>
				</g>
				<g>
					<g>
						
							<rect x="784.2" y="422.3" transform="matrix(-0.8819 -0.4715 0.4715 -0.8819 1247.7607 1297.89)" class="st3" width="4.5" height="140.7"/>
					</g>
				</g>
				<g>
					<g>
						<polygon class="st3" points="742.8,555.7 738.8,553.6 804.4,428.7 691.8,370.9 693.9,366.9 810.5,426.8 						"/>
					</g>
				</g>
				<g>
					<g>
						
							<rect x="702.1" y="379.1" transform="matrix(-0.8948 -0.4464 0.4464 -0.8948 1268.6484 1061.5839)" class="st3" width="114.5" height="4.5"/>
					</g>
				</g>
			</g>
			<path class="st3" d="M775.4,547.9H725c-10.6,0-19.3,8.6-19.3,19.3h88.9C794.7,556.6,786,547.9,775.4,547.9z"/>
			
				<linearGradient id="SVGID_1_" gradientUnits="userSpaceOnUse" x1="587.968" y1="352.9517" x2="492.968" y2="115.9518" gradientTransform="matrix(1 0 0 -1 0 797.2)">
				<stop  offset="0" style="stop-color:#FFFFFF"/>
				<stop  offset="1" style="stop-color:#FFFFFF;stop-opacity:0"/>
			</linearGradient>
			<polyline class="st27" points="620.3,394.7 369,713.6 591,713.6 690.8,415.2 			"/>
			
				<linearGradient id="SVGID_2_" gradientUnits="userSpaceOnUse" x1="610.002" y1="345.8015" x2="521.0428" y2="123.872" gradientTransform="matrix(1 0 0 -1 0 797.2)">
				<stop  offset="0" style="stop-color:#FFFFFF"/>
				<stop  offset="1" style="stop-color:#FFFFFF;stop-opacity:0"/>
			</linearGradient>
			<polyline class="st28" points="645.8,402.1 429.9,713.6 579.9,713.6 665.3,407.8 			"/>
		</g>
	</g>
</g>
</svg>
