<?xml version="1.0" encoding="utf-8"?>
<!-- Generator: Adobe Illustrator 19.0.0, SVG Export Plug-In . SVG Version: 6.00 Build 0)  -->
<svg version="1.1" id="Objects" xmlns="http://www.w3.org/2000/svg" xmlns:xlink="http://www.w3.org/1999/xlink" x="0px" y="0px"
	 viewBox="990 396 634 500" style="enable-background:new 990 396 634 500;" xml:space="preserve">
<style type="text/css">
	.st0{fill:#F2F2F2;}
	.st1{fill:#4C8EB4;}
	.st2{fill:#609DC1;}
	.st3{fill:#73ACCD;}
	.st4{fill:#87BBDA;}
	.st5{fill:#9ACAE6;}
	.st6{fill:#CCCCCC;}
	.st7{fill:#FEC00F;}
	.st8{fill:#15B0BF;}
	.st9{fill:#FFFFFF;}
	.st10{fill:#00A295;}
	.st11{fill:#FF7C55;}
	.st12{fill:#2C465F;}
	.st13{fill:#617B93;}
	.st14{opacity:0.1;fill:#FFFFFF;enable-background:new    ;}
	.st15{fill:#21D8DE;}
	.st16{fill:#E64717;}
	.st17{fill:#F2F9FF;}
	.st18{fill:#20364D;}
	.st19{fill:#365772;}
	.st20{fill:#2F4F6B;}
	.st21{fill:#044470;}
	.st22{fill:#3793D1;}
	.st23{fill:#043049;}
	.st24{fill:#1C75BA;}
	.st25{fill:#F0ECDA;}
	.st26{fill:#F4EBE6;}
	.st27{fill:#FFA91B;}
	.st28{fill:#183A4A;}
	.st29{fill:#FF9827;}
	.st30{fill:#F23130;}
	.st31{fill:#00CCCC;}
	.st32{fill:#FF6666;}
	.st33{fill:#FFFF66;}
	.st34{fill:#666666;}
	.st35{fill:#999999;}
	.st36{fill:#2E3192;}
	.st37{fill:#E6E6E6;}
	.st38{opacity:0.2;}
	.st39{fill:#75CFEA;}
	.st40{fill:#6FC5DF;}
	.st41{fill:#6ABBD4;}
	.st42{fill:#64B1C9;}
	.st43{fill:#5FA8BD;}
	.st44{fill:#599EB2;}
	.st45{fill:#5494A7;}
	.st46{fill:#4E8A9C;}
	.st47{fill:#488091;}
	.st48{fill:#437686;}
	.st49{fill:#3D6C7B;}
	.st50{fill:#38636F;}
	.st51{fill:#325964;}
	.st52{fill:#2D4F59;}
	.st53{fill:#27454E;}
	.st54{fill:#213B43;}
	.st55{fill:#1C3138;}
	.st56{fill:#16272D;}
	.st57{fill:#111E21;}
	.st58{fill:#0B1416;}
	.st59{fill:#060A0B;}
	.st60{fill:#FFC52D;}
	.st61{fill:#00B4BA;}
	.st62{fill:#06756A;}
	.st63{fill:#00A59B;}
	.st64{fill:#22B573;}
	.st65{fill:#CE0F0F;}
	.st66{fill:#C7B299;}
	.st67{fill:#FAF6F1;}
	.st68{fill:#ED1C24;}
	.st69{fill:#9E4A25;}
	.st70{fill:#C1272D;}
	.st71{fill:#893D22;}
	.st72{fill:#2E3E52;}
	.st73{fill:#F0D6C1;}
	.st74{fill:#FEE1C9;}
	.st75{fill:#DDC0AC;}
	.st76{fill:#212D3A;}
	.st77{fill:#F5FFFE;}
	.st78{fill:#EE4A3B;}
	.st79{fill:#E23A33;}
	.st80{fill:#B3B3B3;}
	.st81{opacity:0.6;fill:#FFFFFF;enable-background:new    ;}
	.st82{fill:#5B5959;}
</style>
<g id="Design">
	<g>
		<g id="paper_2_">
			<g>
				<path class="st0" d="M1075.6,473.9l83.4-17.6l24.9,118l-83.4,17.6L1075.6,473.9z"/>
				<g>
					<polygon class="st1" points="1098.9,532.7 1106.1,531.2 1107.5,537.7 1100.3,539.3 					"/>
					
						<rect x="1107.4" y="527.2" transform="matrix(0.9786 -0.206 0.206 0.9786 -85.7561 240.2934)" class="st2" width="7.4" height="9.6"/>
					
						<rect x="1115.2" y="518.8" transform="matrix(0.9785 -0.2062 0.2062 0.9785 -84.6195 242.0366)" class="st3" width="7.4" height="16.3"/>
					
						<rect x="1123.7" y="519.5" transform="matrix(0.9786 -0.2059 0.2059 0.9786 -84.239 243.3978)" class="st4" width="7.4" height="14"/>
					
						<rect x="1132.8" y="524.6" transform="matrix(0.9785 -0.2062 0.2062 0.9785 -84.4687 245.7011)" class="st5" width="7.4" height="7"/>
					
						<rect x="1140.6" y="520.2" transform="matrix(0.9785 -0.2062 0.2062 0.9785 -83.6651 247.2385)" class="st3" width="7.4" height="9.7"/>
					
						<rect x="1148.6" y="514.2" transform="matrix(0.9785 -0.206 0.206 0.9785 -82.6492 248.5662)" class="st4" width="7.4" height="14"/>
					
						<rect x="1155.9" y="503.2" transform="matrix(0.9785 -0.2062 0.2062 0.9785 -81.2439 250.1737)" class="st5" width="7.4" height="23.3"/>
				</g>
				
					<rect x="1099.4" y="546.3" transform="matrix(0.9785 -0.2061 0.2061 0.9785 -88.8566 241.6335)" class="st6" width="31.9" height="2.1"/>
				
					<rect x="1100.1" y="549.9" transform="matrix(0.9785 -0.2061 0.2061 0.9785 -89.5988 241.8717)" class="st6" width="32" height="2.1"/>
				
					<rect x="1101" y="553.6" transform="matrix(0.9785 -0.2061 0.2061 0.9785 -90.3434 242.1103)" class="st6" width="31.9" height="2.1"/>
				
					<rect x="1101.7" y="557.2" transform="matrix(0.9785 -0.206 0.206 0.9785 -91.0252 242.226)" class="st6" width="31.9" height="2.1"/>
				
					<rect x="1102.4" y="560.9" transform="matrix(0.9785 -0.2061 0.2061 0.9785 -91.8 242.5785)" class="st6" width="32" height="2.1"/>
				
					<rect x="1103.2" y="564.5" transform="matrix(0.9786 -0.206 0.206 0.9786 -92.4922 242.6634)" class="st6" width="31.9" height="2.1"/>
				
					<rect x="1103.9" y="568.1" transform="matrix(0.9785 -0.206 0.206 0.9785 -93.2284 242.9225)" class="st6" width="32" height="2.1"/>
				
					<rect x="1104.9" y="573.4" transform="matrix(0.9785 -0.2061 0.2061 0.9785 -94.4973 241.7038)" class="st6" width="16" height="2.1"/>
				
					<rect x="1136.3" y="538.6" transform="matrix(0.9785 -0.2061 0.2061 0.9785 -86.4778 249.0732)" class="st6" width="31.9" height="2.1"/>
				
					<rect x="1137" y="542.2" transform="matrix(0.9785 -0.206 0.206 0.9785 -87.1862 249.1812)" class="st6" width="32" height="2.1"/>
				
					<rect x="1137.7" y="545.8" transform="matrix(0.9785 -0.2061 0.2061 0.9785 -87.9343 249.5245)" class="st6" width="32" height="2.1"/>
				
					<rect x="1138.6" y="549.4" transform="matrix(0.9785 -0.206 0.206 0.9785 -88.6407 249.6581)" class="st6" width="32" height="2.1"/>
				
					<rect x="1139.3" y="553.1" transform="matrix(0.9785 -0.2061 0.2061 0.9785 -89.4147 250.0055)" class="st6" width="32" height="2.1"/>
				
					<rect x="1140" y="556.7" transform="matrix(0.9785 -0.2061 0.2061 0.9785 -90.1445 250.227)" class="st6" width="32" height="2.1"/>
				
					<rect x="1140.9" y="560.4" transform="matrix(0.9785 -0.2061 0.2061 0.9785 -90.8726 250.4894)" class="st6" width="31.9" height="2.1"/>
				
					<rect x="1141.6" y="564.9" transform="matrix(0.9786 -0.206 0.206 0.9786 -91.8619 249.6223)" class="st6" width="22.5" height="2.1"/>
				<g>
					<g>
						<polygon class="st7" points="1096,510.7 1093.5,508.5 1113.6,486 1131.3,493.3 1152.4,471.1 1154.8,473.4 1132.1,497.2 
							1114.5,489.9 						"/>
					</g>
					<g>
						<polygon class="st7" points="1156.2,479 1153.6,479.6 1152.4,473.9 1146.7,475.1 1146.2,472.5 1154.5,470.8 						"/>
					</g>
				</g>
				<path class="st8" d="M1134.9,493.9c-0.4-2-2.3-3.2-4.3-2.8s-3.2,2.3-2.8,4.3s2.3,3.2,4.3,2.8
					C1134.1,497.8,1135.3,495.9,1134.9,493.9z"/>
				<circle class="st8" cx="1114.1" cy="487.9" r="3.6"/>
			</g>
			<g>
				<path class="st9" d="M1117.7,484.6l83.9-15.5l21.9,118.6l-83.8,15.5L1117.7,484.6z"/>
				
					<rect x="1139.4" y="554.6" transform="matrix(0.9833 -0.1819 0.1819 0.9833 -81.4803 222.8195)" class="st6" width="69.1" height="2.1"/>
				
					<rect x="1140.1" y="558.2" transform="matrix(0.9833 -0.1819 0.1819 0.9833 -82.1245 222.9973)" class="st6" width="69.1" height="2.1"/>
				
					<rect x="1140.8" y="561.9" transform="matrix(0.9833 -0.1819 0.1819 0.9833 -82.7897 223.1933)" class="st6" width="69.1" height="2.1"/>
				<polygon class="st6" points="1141.8,571.8 1209.8,559.2 1210.2,561.3 1142.2,573.9 				"/>
				
					<rect x="1142.1" y="569.2" transform="matrix(0.9833 -0.1819 0.1819 0.9833 -84.0964 223.5533)" class="st6" width="69.1" height="2.1"/>
				
					<rect x="1142.7" y="572.8" transform="matrix(0.9833 -0.1819 0.1819 0.9833 -84.7469 223.7283)" class="st6" width="69.1" height="2.1"/>
				
					<rect x="1143.5" y="576.5" transform="matrix(0.9833 -0.1819 0.1819 0.9833 -85.4006 223.931)" class="st6" width="69.1" height="2.1"/>
				
					<rect x="1144.5" y="584.9" transform="matrix(0.9834 -0.1817 0.1817 0.9834 -87.2878 219.1484)" class="st6" width="16" height="2.1"/>
				<g>
					<path class="st10" d="M1177.2,518.4c-0.2,1.5-0.7,2.9-1.5,4.1l9.2,8.9c3.1-3.9,5-8.7,5.1-13.9L1177.2,518.4z"/>
					<path class="st7" d="M1167.3,506.8c4.4,0.1,8.3,3.1,9.6,7.4l12.8-0.9c0-0.1,0-0.3-0.1-0.4c-2.2-11.8-13-19.8-24.7-18.7
						L1167.3,506.8z"/>
					<path class="st11" d="M1158.4,511.7c1.1-1.8,2.8-3.3,4.8-4.1l-2.3-12.6c-6.6,1.8-11.8,6.5-14.5,12.3L1158.4,511.7z"/>
					<path class="st12" d="M1172.9,525.5c-1.1,0.8-2.5,1.4-3.9,1.6c-5.6,1-10.9-2.7-12-8.2c-0.2-1.1-0.2-2.3,0-3.3l-12.1-4.4
						c-0.8,3.2-1,6.6-0.4,10c2.3,12.5,14.3,20.7,26.7,18.4c4.2-0.8,7.8-2.6,10.8-5.2L1172.9,525.5z"/>
				</g>
			</g>
		</g>
		<g id="calculator">
			<path class="st13" d="M1062.4,621.6l-51.5,32l30.5,49.1c0.4,0.6,1,1.1,1.7,1.3c0.8,0.2,1.5,0,2.1-0.3l46.7-29
				c0.6-0.4,1.1-1,1.3-1.7c0.2-0.8,0-1.5-0.3-2.1L1062.4,621.6z"/>
			<polygon class="st14" points="1017.4,649.5 1062.4,621.6 1089.3,664.8 			"/>
			<g>
				<g>
					<g>
						<path class="st15" d="M1041,650.1c0.1,0.2,0.1,0.5-0.2,0.7l-17.2,10.7c-0.2,0.1-0.5,0.1-0.7-0.2l-3.4-5.5
							c-0.1-0.2-0.1-0.5,0.2-0.7l17.2-10.7c0.2-0.1,0.5-0.1,0.7,0.2L1041,650.1z"/>
					</g>
					<g>
						<path class="st16" d="M1052.7,642.9c0.1,0.2,0.1,0.5-0.2,0.7l-5.5,3.4c-0.2,0.1-0.5,0.1-0.7-0.2l-3.4-5.5
							c-0.1-0.2-0.1-0.5,0.2-0.7l5.5-3.4c0.2-0.1,0.5-0.1,0.7,0.2L1052.7,642.9z"/>
					</g>
					<g>
						<g>
							<path class="st17" d="M1064.3,635.7c0.1,0.2,0.1,0.5-0.2,0.7l-5.5,3.4c-0.2,0.1-0.5,0.1-0.7-0.2l-3.4-5.5
								c-0.1-0.2-0.1-0.5,0.2-0.7l5.5-3.4c0.2-0.1,0.5-0.1,0.7,0.2L1064.3,635.7z"/>
						</g>
					</g>
					<g>
						<g>
							<path class="st17" d="M1036.6,669c0.1,0.2,0.1,0.5-0.2,0.7l-5.5,3.4c-0.2,0.1-0.5,0.1-0.7-0.2l-3.4-5.5
								c-0.1-0.2-0.1-0.5,0.2-0.7l5.5-3.4c0.2-0.1,0.5-0.1,0.7,0.2L1036.6,669z"/>
						</g>
					</g>
					<g>
						<g>
							<path class="st17" d="M1048.3,661.8c0.1,0.2,0.1,0.5-0.2,0.7l-5.5,3.4c-0.2,0.1-0.5,0.1-0.7-0.2l-3.4-5.5
								c-0.1-0.2-0.1-0.5,0.2-0.7l5.5-3.4c0.2-0.1,0.5-0.1,0.7,0.2L1048.3,661.8z"/>
						</g>
					</g>
					<g>
						<g>
							<path class="st17" d="M1059.9,654.6c0.1,0.2,0.1,0.5-0.2,0.7l-5.5,3.4c-0.2,0.1-0.5,0.1-0.7-0.2l-3.4-5.5
								c-0.1-0.2-0.1-0.5,0.2-0.7l5.5-3.4c0.2-0.1,0.5-0.1,0.7,0.2L1059.9,654.6z"/>
						</g>
					</g>
					<g>
						<g>
							<path class="st17" d="M1071.6,647.3c0.1,0.2,0.1,0.5-0.2,0.7l-5.5,3.4c-0.2,0.1-0.5,0.1-0.7-0.2l-3.4-5.5
								c-0.1-0.2-0.1-0.5,0.2-0.7l5.5-3.4c0.2-0.1,0.5-0.1,0.7,0.2L1071.6,647.3z"/>
						</g>
					</g>
					<g>
						<g>
							<path class="st17" d="M1043.9,680.7c0.1,0.2,0.1,0.5-0.2,0.7l-5.5,3.4c-0.2,0.1-0.5,0.1-0.7-0.2l-3.4-5.5
								c-0.1-0.2-0.1-0.5,0.2-0.7l5.5-3.4c0.2-0.1,0.5-0.1,0.7,0.2L1043.9,680.7z"/>
						</g>
					</g>
					<g>
						<g>
							<path class="st17" d="M1055.5,673.4c0.1,0.2,0.1,0.5-0.2,0.7l-5.5,3.4c-0.2,0.1-0.5,0.1-0.7-0.2l-3.4-5.5
								c-0.1-0.2-0.1-0.5,0.2-0.7l5.5-3.4c0.2-0.1,0.5-0.1,0.7,0.2L1055.5,673.4z"/>
						</g>
					</g>
					<g>
						<path class="st18" d="M1067.1,666.2c0.1,0.2,0.1,0.5-0.2,0.7l-5.5,3.4c-0.2,0.1-0.5,0.1-0.7-0.2l-3.4-5.5
							c-0.1-0.2-0.1-0.5,0.2-0.7l5.5-3.4c0.2-0.1,0.5-0.1,0.7,0.2L1067.1,666.2z"/>
					</g>
					<g>
						<g>
							<path class="st17" d="M1051.1,692.3c0.1,0.2,0.1,0.5-0.2,0.7l-5.5,3.4c-0.2,0.1-0.5,0.1-0.7-0.2l-3.4-5.5
								c-0.1-0.2-0.1-0.5,0.2-0.7l5.5-3.4c0.2-0.1,0.5-0.1,0.7,0.2L1051.1,692.3z"/>
						</g>
					</g>
					<g>
						<g>
							<path class="st17" d="M1062.7,685.1c0.1,0.2,0.1,0.5-0.2,0.7l-5.5,3.4c-0.2,0.1-0.5,0.1-0.7-0.2l-3.4-5.5
								c-0.1-0.2-0.1-0.5,0.2-0.7l5.5-3.4c0.2-0.1,0.5-0.1,0.7,0.2L1062.7,685.1z"/>
						</g>
					</g>
					<g>
						<g>
							<path class="st18" d="M1074.4,677.8c0.1,0.2,0.1,0.5-0.2,0.7l-5.5,3.4c-0.2,0.1-0.5,0.1-0.7-0.2l-3.4-5.5
								c-0.1-0.2-0.1-0.5,0.2-0.7l5.5-3.4c0.2-0.1,0.5-0.1,0.7,0.2L1074.4,677.8z"/>
						</g>
					</g>
					<g>
						<path class="st18" d="M1086,670.6c0.1,0.2,0.1,0.5-0.2,0.7l-5.5,3.4c-0.2,0.1-0.5,0.1-0.7-0.2l-3.4-5.5
							c-0.1-0.2-0.1-0.5,0.2-0.7l5.5-3.4c0.2-0.1,0.5-0.1,0.7,0.2L1086,670.6z"/>
					</g>
					<g>
						<path class="st18" d="M1078.8,659c0.1,0.2,0.1,0.5-0.2,0.7l-5.5,3.4c-0.2,0.1-0.5,0.1-0.7-0.2l-3.4-5.5
							c-0.1-0.2-0.1-0.5,0.2-0.7l5.5-3.4c0.2-0.1,0.5-0.1,0.7,0.2L1078.8,659z"/>
					</g>
				</g>
			</g>
			<path class="st19" d="M1049.6,601c-0.4-0.6-1-1.1-1.7-1.3c-0.8-0.2-1.5,0-2.1,0.3l-46.7,29c-0.6,0.4-1.1,1-1.3,1.7
				c-0.2,0.8,0,1.5,0.3,2.1l12.8,20.5l51.5-32L1049.6,601z"/>
			<path class="st20" d="M1014,645.9c-0.4,0.2-0.8,0.3-1.3,0.2c-0.4-0.1-0.8-0.4-1-0.7l-7.4-11.9c-0.2-0.4-0.3-0.8-0.2-1.3
				c0.1-0.4,0.4-0.8,0.7-1l40.4-25.1c0.4-0.2,0.8-0.3,1.3-0.2c0.4,0.1,0.8,0.4,1,0.7l7.4,11.9c0.2,0.4,0.3,0.8,0.2,1.3
				c-0.1,0.4-0.4,0.8-0.7,1L1014,645.9z"/>
			<path class="st7" d="M1005.5,632.2c-0.1,0.1-0.2,0.2-0.2,0.3s0,0.3,0.1,0.4l7.4,11.9c0.1,0.1,0.2,0.2,0.3,0.2s0.3,0,0.4-0.1
				l40.4-25.1c0.1-0.1,0.2-0.2,0.2-0.3s0-0.3-0.1-0.4l-7.4-11.9c-0.1-0.1-0.2-0.2-0.3-0.2s-0.3,0-0.4,0.1L1005.5,632.2z"/>
			
				<rect x="1006" y="636.5" transform="matrix(-0.8494 0.5277 -0.5277 -0.8494 2252.769 631.3779)" class="st20" width="60.6" height="1.2"/>
		</g>
		<g>
			
				<rect x="1259.7" y="518.4" transform="matrix(0.9761 0.2172 -0.2172 0.9761 145.6419 -272.5081)" class="st9" width="105.6" height="15.8"/>
			<path class="st21" d="M1287.7,509.1c-1.3,6.1-7.9,9.8-14.6,8.3c-6.7-1.5-10.6-0.2-13.7,4.2l24.1-108.4c1.3-6.1,7.9-9.8,14.6-8.3
				c6.7,1.5,11.1,7.6,9.7,13.7L1287.7,509.1z"/>
			
				<rect x="1283.8" y="413.4" transform="matrix(-0.9761 -0.2172 0.2172 -0.9761 2527.2351 1219.9037)" class="st22" width="93.8" height="115.3"/>
			<path class="st23" d="M1298.1,404.8c-1.1-0.3-2.3-0.3-3.4-0.3l-25,112.3c1,0.1,2.1,0.3,3.3,0.5c6.7,1.5,13.3-2.2,14.6-8.3
				l20.2-90.6C1309.2,412.4,1304.8,406.3,1298.1,404.8"/>
			
				<rect x="1284.3" y="408.1" transform="matrix(-0.9761 -0.2172 0.2172 -0.9761 2480.6177 1204.1971)" class="st24" width="44.3" height="115.3"/>
			<path class="st9" d="M1364,537.6l-96.8-21.6c-3.5-0.8-7,1.9-7.9,5.9c-0.9,4,1.2,7.9,4.7,8.7l96.7,21.5L1364,537.6z"/>
			<path class="st21" d="M1357.3,550.1l1.9-8.5l0.4,0.1l0.8-3.7l3.3,0.7l0.3-1.1l-96.8-21.6c-3.5-0.8-7,1.9-7.9,5.9
				c-0.9,4,1.2,7.9,4.7,8.7l96.7,21.5l0.3-1.2L1357.3,550.1z"/>
			<path class="st9" d="M1363.7,538.7l-96.7-21.5c-2.8-0.6-5.8,1.6-6.5,5c-0.8,3.4,0.9,6.7,3.8,7.3L1361,551L1363.7,538.7z"/>
			<path class="st25" d="M1260.4,522.3c-0.7,3.3,1,6.5,3.8,7.2L1361,551l1.3-6L1260.4,522.3z"/>
			<g>
				<path class="st9" d="M1355.4,478.6c-3.4,15.3-18.6,25-33.9,21.6s-25-18.6-21.6-33.9c3.4-15.3,18.6-25,33.9-21.6
					C1349.2,448.1,1358.9,463.3,1355.4,478.6"/>
				<path class="st26" d="M1333.9,444.7l-12.4,55.5c15.3,3.4,30.5-6.3,33.9-21.6C1358.9,463.3,1349.2,448.1,1333.9,444.7"/>
			</g>
			<path class="st27" d="M1281.1,423.8l-2.5,11.1c2.4-2.2,5.7-3.3,10.1-3.1l2.1-9.3C1287.3,422.3,1284.1,422.8,1281.1,423.8"/>
			<path class="st27" d="M1265.6,493.6l-2.5,11.1c2.4-2.2,5.7-3.3,10.1-3.1l2.1-9.3C1271.8,492.1,1268.5,492.6,1265.6,493.6"/>
		</g>
		<g>
			<path class="st28" d="M1549.4,592c0.6-1.7,1.8-4.7-0.1-6.1c-2.4-1.7-4.3,1.4-4.9,3.3c-0.2,0.7,0.9,1.1,1.1,0.4
				c0.3-0.9,0.6-1.6,1.2-2.3c0.7-0.7,1.6-1,2.2,0c0.6,1.2-0.3,3.1-0.7,4.3C1548,592.4,1549.2,592.8,1549.4,592"/>
			<path class="st28" d="M1559.5,595.6c0.6-1.7,1.8-4.7-0.1-6.1c-2.4-1.7-4.3,1.4-4.9,3.3c-0.2,0.7,0.9,1.1,1.1,0.4
				c0.3-0.9,0.6-1.6,1.2-2.3c0.7-0.7,1.6-1,2.2,0c0.6,1.2-0.3,3.1-0.7,4.3C1558.1,595.9,1559.2,596.3,1559.5,595.6"/>
			<path class="st28" d="M1569.6,599.1c0.6-1.7,1.8-4.7-0.1-6.1c-2.4-1.7-4.3,1.4-4.9,3.3c-0.2,0.7,0.9,1.1,1.1,0.4
				c0.3-0.9,0.6-1.6,1.2-2.3c0.7-0.7,1.6-1,2.2,0c0.6,1.2-0.3,3.1-0.7,4.3C1568.2,599.5,1569.3,599.9,1569.6,599.1"/>
			<path class="st28" d="M1579.6,602.7c0.6-1.7,1.8-4.7-0.1-6.1c-2.4-1.7-4.3,1.4-4.9,3.3c-0.2,0.7,0.9,1.1,1.1,0.4
				c0.3-0.9,0.6-1.6,1.2-2.3c0.7-0.7,1.6-1,2.2,0c0.6,1.2-0.3,3.1-0.7,4.3C1578.2,603,1579.4,603.4,1579.6,602.7"/>
			<path class="st28" d="M1589.6,606.2c0.6-1.7,1.8-4.7-0.1-6.1c-2.4-1.7-4.3,1.4-4.9,3.3c-0.2,0.7,0.9,1.1,1.1,0.4
				c0.3-0.9,0.6-1.6,1.2-2.3c0.7-0.7,1.6-1,2.2,0c0.6,1.2-0.3,3.1-0.7,4.3C1588.2,606.5,1589.4,606.9,1589.6,606.2"/>
			<path class="st28" d="M1599.7,609.8c0.6-1.7,1.8-4.7-0.1-6.1c-2.4-1.7-4.3,1.4-4.9,3.3c-0.2,0.7,0.9,1.1,1.1,0.4
				c0.3-0.9,0.6-1.6,1.2-2.3c0.7-0.7,1.6-1,2.2,0c0.6,1.2-0.3,3.1-0.7,4.3C1598.3,610.1,1599.4,610.5,1599.7,609.8"/>
			<path class="st28" d="M1609.6,613.3c0.6-1.7,1.8-4.7-0.1-6.1c-2.4-1.7-4.3,1.4-4.9,3.3c-0.2,0.7,0.9,1.1,1.1,0.4
				c0.3-0.9,0.6-1.6,1.2-2.3c0.7-0.7,1.6-1,2.2,0c0.6,1.2-0.3,3.1-0.7,4.3C1608.2,613.6,1609.3,614,1609.6,613.3"/>
			<polygon class="st29" points="1598.9,654.7 1597.8,654.5 1596.5,658.4 1569.9,649 1574.7,635.3 1535.5,627.7 1531.7,638.3 
				1525.2,636 1516.6,667 1589.8,687.4 			"/>
			<polygon class="st30" points="1591.8,658.4 1606.6,616.3 1601.2,613.9 1591,642.8 1530.6,621.5 1513.4,660.1 1582.7,691.1 
				1596.6,660.1 			"/>
			
				<rect x="1527.5" y="597.3" transform="matrix(-0.9431 -0.3325 0.3325 -0.9431 2830.2671 1756.9849)" class="st9" width="76" height="78"/>
			
				<rect x="1538.7" y="599.2" transform="matrix(-0.9431 -0.3325 0.3325 -0.9431 2862.5723 1699.2236)" class="st26" width="76" height="10.9"/>
			
				<rect x="1539.3" y="599.3" transform="matrix(-0.9431 -0.3325 0.3325 -0.9431 2864.3608 1695.7927)" class="st29" width="76" height="7"/>
			<path class="st28" d="M1550.4,592.9c-0.4,1.1-1.5,1.6-2.6,1.2c-1.1-0.4-1.6-1.5-1.2-2.6s1.5-1.6,2.6-1.2
				C1550.2,590.7,1550.8,591.8,1550.4,592.9"/>
			<path class="st28" d="M1560.5,596.4c-0.4,1.1-1.5,1.6-2.6,1.2c-1.1-0.4-1.6-1.5-1.2-2.6s1.5-1.6,2.6-1.2
				C1560.3,594.2,1560.9,595.4,1560.5,596.4"/>
			<path class="st28" d="M1570.6,600c-0.4,1.1-1.5,1.6-2.6,1.2c-1.1-0.4-1.6-1.5-1.2-2.6s1.5-1.6,2.6-1.2
				C1570.4,597.8,1571,598.9,1570.6,600"/>
			<path class="st28" d="M1580.7,603.5c-0.4,1.1-1.5,1.6-2.6,1.2c-1.1-0.4-1.6-1.5-1.2-2.6s1.5-1.6,2.6-1.2
				C1580.5,601.3,1581.1,602.5,1580.7,603.5"/>
			<path class="st28" d="M1590.8,607.1c-0.4,1.1-1.5,1.6-2.6,1.2c-1.1-0.4-1.6-1.5-1.2-2.6s1.5-1.6,2.6-1.2
				C1590.6,604.9,1591.1,606,1590.8,607.1"/>
			<path class="st28" d="M1600.9,610.7c-0.4,1.1-1.5,1.6-2.6,1.2c-1.1-0.4-1.6-1.5-1.2-2.6s1.5-1.6,2.6-1.2
				C1600.7,608.4,1601.2,609.6,1600.9,610.7"/>
			<path class="st28" d="M1611,614.2c-0.4,1.1-1.5,1.6-2.6,1.2c-1-0.4-1.6-1.5-1.2-2.6s1.5-1.6,2.6-1.2
				C1610.8,612,1611.3,613.2,1611,614.2"/>
			<path class="st28" d="M1549.3,585.9c-1.2-0.9-2.3-0.5-3.2,0.4l1.4,0.5c0.5-0.2,1-0.1,1.4,0.6c0.6,1.2-0.3,3.1-0.7,4.3
				c-0.3,0.7,0.9,1.1,1.1,0.4C1550,590.3,1551.3,587.3,1549.3,585.9"/>
			<path class="st28" d="M1559.4,589.5c-1.3-0.9-2.5-0.4-3.4,0.6l1.3,0.4c0.6-0.4,1.3-0.5,1.8,0.4c0.6,1.2-0.3,3.1-0.7,4.3
				c-0.3,0.7,0.9,1.1,1.1,0.4C1560.1,593.9,1561.3,590.8,1559.4,589.5"/>
			<path class="st28" d="M1569.5,593c-1.5-1-2.7-0.3-3.6,0.9l1.2,0.4c0.7-0.6,1.6-0.9,2.1,0.1c0.7,1.2-0.3,3.1-0.7,4.3
				c-0.3,0.7,0.9,1.1,1.1,0.4C1570.2,597.4,1571.4,594.4,1569.5,593"/>
			<path class="st28" d="M1579.5,596.6c-1.1-0.8-2-0.5-2.8,0.1l1.2,0.4l-0.1,0.3c0.5-0.2,1-0.1,1.4,0.6c0.6,1.2-0.3,3.1-0.7,4.3
				c-0.3,0.7,0.9,1.1,1.1,0.4C1580.2,601,1581.4,597.9,1579.5,596.6"/>
			<path class="st28" d="M1589.6,600.1c-1.4-1-2.6-0.3-3.5,0.8l1.2,0.4c0.6-0.5,1.4-0.6,1.9,0.3c0.6,1.2-0.3,3.1-0.7,4.3
				c-0.3,0.7,0.9,1.1,1.1,0.4C1590.3,604.5,1591.5,601.5,1589.6,600.1"/>
			<path class="st28" d="M1599.6,603.6c-1.4-1-2.6-0.3-3.5,0.8l1.2,0.4c0.6-0.5,1.4-0.6,1.9,0.3c0.6,1.2-0.3,3.1-0.7,4.3
				c-0.3,0.7,0.9,1.1,1.1,0.4C1600.3,608,1601.5,605,1599.6,603.6"/>
			<path class="st28" d="M1609.5,607.1c-1.3-0.9-2.4-0.4-3.3,0.5l1.3,0.5c0.6-0.3,1.2-0.3,1.6,0.5c0.6,1.2-0.3,3.1-0.7,4.3
				c-0.3,0.7,0.9,1.1,1.1,0.4C1610.2,611.5,1611.4,608.5,1609.5,607.1"/>
			
				<rect x="1535.9" y="623.9" transform="matrix(-0.9431 -0.3325 0.3325 -0.9431 2840.7654 1738.045)" class="st26" width="66.3" height="4.1"/>
			
				<rect x="1532.8" y="633.1" transform="matrix(-0.9431 -0.3325 0.3325 -0.9431 2831.5286 1754.9208)" class="st26" width="66.3" height="4.1"/>
			
				<rect x="1529.6" y="641.9" transform="matrix(-0.9431 -0.3325 0.3325 -0.9431 2822.5574 1770.9393)" class="st26" width="66.3" height="4.1"/>
			
				<rect x="1526.4" y="651.1" transform="matrix(-0.9431 -0.3325 0.3325 -0.9431 2813.1626 1787.7136)" class="st26" width="66.3" height="4.1"/>
			
				<rect x="1575.7" y="671.4" transform="matrix(0.9431 0.3325 -0.3325 0.9431 315.3585 -487.8943)" class="st26" width="15.1" height="12.3"/>
			<polygon class="st9" points="1574.1,680.7 1588.4,685.8 1592.4,674.2 			"/>
			
				<rect x="1541.2" y="602.9" transform="matrix(-0.9431 -0.3325 0.3325 -0.9431 2801.9705 1694.9928)" class="st29" width="9.7" height="9.7"/>
			
				<rect x="1553.2" y="607.1" transform="matrix(-0.9431 -0.3324 0.3324 -0.9431 2824.0593 1706.9288)" class="st30" width="9.7" height="9.7"/>
		</g>
		<g>
			
				<rect x="1433" y="504.5" transform="matrix(-0.9361 -0.3516 0.3516 -0.9361 2644.7288 1576.1777)" class="st9" width="65" height="86.8"/>
			<path d="M1520.7,517.1c0.8-2.2-0.3-4.6-2.5-5.4l-67.7-25.4c-2.2-0.8-4.6,0.3-5.4,2.5l-33.9,90.2c-0.8,2.2,0.3,4.6,2.5,5.4
				l67.7,25.4c2.2,0.8,4.6-0.3,5.4-2.5L1520.7,517.1z M1480.6,600l-60.3-22.7l30.5-81.2l60.3,22.7L1480.6,600z"/>
			
				<rect x="1441" y="512.7" transform="matrix(-0.9361 -0.3516 0.3516 -0.9361 2666.7114 1540.3823)" class="st31" width="64.5" height="30.6"/>
			
				<rect x="1435.8" y="539.6" transform="matrix(-0.9361 -0.3516 0.3516 -0.9361 2613.4927 1570.7739)" class="st32" width="27.2" height="17"/>
			
				<rect x="1425.1" y="569.7" transform="matrix(-0.9361 -0.3516 0.3516 -0.9361 2582.7854 1622.2549)" class="st33" width="27.2" height="13.9"/>
			
				<rect x="1431.8" y="557.8" transform="matrix(-0.9361 -0.3517 0.3517 -0.9361 2601.8923 1590.2069)" class="st34" width="27.2" height="1.9"/>
			
				<rect x="1431.2" y="559.2" transform="matrix(-0.9362 -0.3516 0.3516 -0.9362 2592.6321 1590.0969)" class="st35" width="18.9" height="1"/>
			
				<rect x="1430.4" y="561.3" transform="matrix(-0.9361 -0.3516 0.3516 -0.9361 2592.4861 1594.4735)" class="st35" width="21.3" height="1"/>
			
				<rect x="1429.4" y="563.7" transform="matrix(-0.9361 -0.3517 0.3517 -0.9361 2587.417 1598.4576)" class="st35" width="18.9" height="1"/>
			
				<rect x="1428.6" y="566.9" transform="matrix(-0.9361 -0.3517 0.3517 -0.9361 2592.2651 1605.1733)" class="st35" width="26.7" height="0.5"/>
			
				<rect x="1463.7" y="550.5" transform="matrix(-0.9361 -0.3516 0.3516 -0.9361 2663.0713 1602.2181)" class="st31" width="26.7" height="17.5"/>
			
				<rect x="1458.9" y="570.9" transform="matrix(-0.9361 -0.3517 0.3517 -0.9361 2645.9978 1623.9767)" class="st35" width="23.3" height="1.5"/>
			
				<rect x="1458.5" y="571.9" transform="matrix(-0.9362 -0.3516 0.3516 -0.9362 2640.5342 1624.345)" class="st35" width="18.4" height="1"/>
			
				<rect x="1459.6" y="569.6" transform="matrix(-0.9361 -0.3516 0.3516 -0.9361 2651.3455 1621.7953)" class="st34" width="26.7" height="1"/>
			
				<rect x="1457.3" y="575" transform="matrix(-0.9361 -0.3516 0.3516 -0.9361 2636.9785 1629.9374)" class="st35" width="18.4" height="1"/>
			
				<rect x="1456.6" y="577.7" transform="matrix(-0.9361 -0.3516 0.3516 -0.9361 2642.2781 1635.8447)" class="st35" width="26.2" height="0.5"/>
			
				<rect x="1455.1" y="580.8" transform="matrix(-0.9361 -0.3516 0.3516 -0.9361 2638.0383 1643.16)" class="st35" width="26.2" height="2.4"/>
			<path class="st35" d="M1472.4,585.6L1455,579L1472.4,585.6z"/>
			
				<rect x="1454.2" y="584.2" transform="matrix(-0.9361 -0.3517 0.3517 -0.9361 2635.2273 1647.5873)" class="st35" width="26.2" height="0.5"/>
			
				<rect x="1451.9" y="590" transform="matrix(-0.9362 -0.3516 0.3516 -0.9362 2626.1204 1657.8655)" class="st35" width="23.3" height="0.9"/>
			
				<rect x="1451.4" y="590.4" transform="matrix(-0.9361 -0.3517 0.3517 -0.9361 2619.8562 1658.6213)" class="st35" width="18.4" height="1.9"/>
			
				<rect x="1452.8" y="587.8" transform="matrix(-0.9361 -0.3516 0.3516 -0.9361 2631.7561 1654.6415)" class="st34" width="26.7" height="1"/>
			<path class="st36" d="M1517.5,541.1c0,0,0.7,2.4,8.9-8.7c0,0,1.3,0,1-1.3c0,0,6.4-8.5,8.4-14.9c0,0-0.4-1.9-2-1.3
				c0,0-6.1,3-12.4,11.6c0,0-2,1.2-1.3,2.6c0,0,0.2-0.5,2.3-1.5c0,0,2.3,0.9,2.1,1.7c0,0-0.1,0,0,0.8
				C1524.6,530.1,1516.8,538.6,1517.5,541.1"/>
			<path class="st37" d="M1483.2,583.7l43.1-53.4c0,0-1.2-3.4-4.2-3.5l-42.7,53C1479.4,579.8,1482.9,580.3,1483.2,583.7"/>
			<path class="st6" d="M1482.7,582.2l42.8-53.3l-0.9-1l-42.6,53.2C1482,581.1,1482.4,581.5,1482.7,582.2"/>
		</g>
	</g>
	<g class="st38">
		<g>
			<g>
				<polygon class="st39" points="1065.5,831.6 1065.5,914.6 1075.4,914.6 1085.5,914.6 1085.5,831.6 1075.4,831.6 				"/>
				<polygon class="st39" points="1110.9,888.2 1107,862.6 1102.1,830 1102.1,830 1102.1,830 1093.9,831.2 1093.9,831.2 
					1085.8,832.4 1089.3,855.9 1089.3,855.9 1094.6,890.6 1094.6,890.6 1098.2,914.6 1114.5,912.1 				"/>
				<polygon class="st39" points="1044.7,793.5 1044.7,793.5 1038.7,794.1 1038.8,794.3 1038.7,794.3 1039.3,799.7 1039.3,799.9 
					1040.5,812.6 1026.5,812.6 1012.5,812.6 1012.5,816 1012.5,821.9 1012.5,831.5 1012.5,852.8 1012.5,867.4 1012.5,888.7 
					1012.5,903.4 1012.5,909.3 1012.5,914.6 1026.5,914.6 1040.5,914.6 1040.5,909.3 1040.5,903.4 1040.5,888.7 1040.5,867.4 
					1040.5,852.8 1040.5,831.5 1040.5,821.9 1040.5,816 1040.5,813.2 1050.7,915 1056.7,914.6 1056.7,914.6 1062.7,913.8 
					1050.7,793 				"/>
				<path class="st39" d="M1518.7,880.5c-1.1,2.1-3.6,4.3-7.2,4.8c0-0.5,0-1,0-1.5v-8.2c2-0.9,5.2-2.6,7.2,0
					C1519.6,876.9,1519.7,878.7,1518.7,880.5z M1521.7,873.4c-2.7-3.6-7.2-3.2-10.2-1.9v-4h-26.7h-27.3v16.3
					c0,12.8,10.7,22.7,23.6,22.7h-28.8c1.6,3,3.5,5,6.4,7h26.2h26.2c1.8-1,4.3-3,6.4-7h-28.8c11,0,20.2-7.4,22.6-17.7
					c4.6-0.2,8.8-2.7,10.8-6.7C1523.6,879,1523.5,875.8,1521.7,873.4z"/>
			</g>
			<path class="st39" d="M1391.8,726.8l-29.3-21.2H1320h-6.8l-7.7-6.7v-2.3h7.1l22.9-33.2v-18.1v-45.1c0-4.9,0-9.3,0-12.8
				c0-19.2-22.7-22.9-22.7-22.9s-13.3,0-28.3,0c-10,0-21.8,0-29.5,0c-19.5,0-21.5,23.6-21.5,23.6v13.4v43.7v18.1l24.7,33.2h3.3v2.3
				l-12.4,6.7h-1.3h-24h-15.6h-2.7l-22.3,33.1l-26.6,178.9h89h76.8h89L1391.8,726.8z"/>
		</g>
		<g>
			<g>
				<polygon class="st40" points="1066.5,830.7 1066.5,913.7 1076.4,913.7 1086.5,913.7 1086.5,830.7 1076.4,830.7 				"/>
				<polygon class="st40" points="1111.9,887.3 1108,861.8 1103.1,829.1 1103.1,829.1 1103.1,829.1 1094.9,830.4 1094.9,830.4 
					1086.8,831.6 1090.4,855.1 1090.4,855.1 1095.6,889.8 1095.6,889.8 1099.2,913.7 1115.5,911.3 				"/>
				<polygon class="st40" points="1045.7,792.7 1045.7,792.7 1039.8,793.3 1039.8,793.5 1039.8,793.5 1040.3,798.8 1040.3,799.1 
					1041.5,811.7 1027.5,811.7 1013.5,811.7 1013.5,815.2 1013.5,821.1 1013.5,830.7 1013.5,852 1013.5,866.6 1013.5,887.9 
					1013.5,902.6 1013.5,908.5 1013.5,913.7 1027.5,913.7 1041.5,913.7 1041.5,908.5 1041.5,902.6 1041.5,887.9 1041.5,866.6 
					1041.5,852 1041.5,830.7 1041.5,821.1 1041.5,815.2 1041.5,812.4 1051.7,914.2 1057.7,913.7 1057.7,913.7 1063.8,913 
					1051.8,792.1 				"/>
				<path class="st40" d="M1519.7,879.7c-1.1,2.1-3.6,4.3-7.2,4.8c0-0.5,0-1,0-1.5v-8.2c2-0.9,5.2-2.6,7.2,0
					C1520.6,876,1520.7,877.8,1519.7,879.7z M1522.7,872.6c-2.7-3.6-7.2-3.2-10.2-1.9v-4h-26.7h-27.3V883
					c0,12.8,10.7,22.7,23.6,22.7h-28.8c1.6,3,3.5,5,6.4,7h26.2h26.2c1.8-1,4.3-3,6.4-7h-28.8c11,0,20.2-7.4,22.6-17.7
					c4.6-0.2,8.8-2.7,10.8-6.7C1524.6,878.1,1524.5,875,1522.7,872.6z"/>
			</g>
			<path class="st40" d="M1392.9,726.7l-29.4-22H1321h-6.8l-7.7-6.7v-2.3h7.1l22.9-33.2v-18.1v-44.6c0-4.9,0-9.4,0-12.9
				c0-19.2-22.7-23-22.7-23s-13.3,0-28.3,0c-10,0-21.8,0-29.5,0c-19.5,0-21.5,23.3-21.5,23.3v13.4v43.7v18.1l24.7,33.2h3.3v2.3
				l-12.4,6.7h-1.3h-24h-15.6l-2.4,0.6l-22.6,32.5l-26.6,178.9h89h76.8h89L1392.9,726.7z"/>
		</g>
		<g>
			<g>
				<polygon class="st41" points="1067.6,829.9 1067.6,912.9 1077.4,912.9 1087.6,912.9 1087.6,829.9 1077.4,829.9 				"/>
				<polygon class="st41" points="1112.9,886.5 1109,861 1104.1,828.3 1104.1,828.3 1104.1,828.3 1096,829.6 1096,829.6 
					1087.8,830.8 1091.4,854.3 1091.4,854.3 1096.6,889 1096.6,889 1100.2,912.9 1116.5,910.5 				"/>
				<polygon class="st41" points="1046.8,791.8 1046.8,791.8 1040.8,792.4 1040.8,792.7 1040.8,792.7 1041.3,798 1041.3,798.2 
					1042.6,810.9 1028.5,810.9 1014.6,810.9 1014.6,814.4 1014.6,820.2 1014.6,829.9 1014.6,851.2 1014.6,865.8 1014.6,887.1 
					1014.6,901.8 1014.6,907.6 1014.6,912.9 1028.5,912.9 1042.6,912.9 1042.6,907.6 1042.6,901.8 1042.6,887.1 1042.6,865.8 
					1042.6,851.2 1042.6,829.9 1042.6,820.2 1042.6,814.4 1042.6,811.6 1052.7,913.4 1058.8,912.9 1058.8,912.9 1064.8,912.2 
					1052.8,791.3 				"/>
				<path class="st41" d="M1520.8,878.9c-1.1,2.1-3.6,4.3-7.2,4.8c0-0.5,0-1,0-1.5V874c2-0.9,5.2-2.6,7.2,0
					C1521.7,875.2,1521.7,877,1520.8,878.9z M1523.7,871.8c-2.7-3.6-7.2-3.2-10.2-1.9v-4h-26.7h-27.3v16.3
					c0,12.8,10.7,22.7,23.6,22.7h-28.8c1.6,3,3.5,5,6.4,7h26.2h26.2c1.8-1,4.3-3,6.4-7h-28.8c11,0,20.2-7.4,22.6-17.7
					c4.6-0.2,8.8-2.7,10.8-6.7C1525.7,877.3,1525.5,874.1,1523.7,871.8z"/>
			</g>
			<path class="st41" d="M1394,726.6l-29.5-22.7h-42.4h-6.8l-7.7-6.7v-2.3h7.1l22.9-33.2v-18.1v-44.1c0-4.9,0-9.6,0-13
				c-0.1-19.3-22.7-23.1-22.7-23.1s-13.3,0-28.3,0c-10,0-21.8,0-29.5,0c-19.5,0-21.5,23-21.5,23v13.4v43.7v18.1l24.7,33.2h3.3v2.3
				l-12.4,6.7h-1.3h-24h-15.6l-2,1.1l-23.1,32.1l-26.6,178.9h89h76.8h89L1394,726.6z"/>
		</g>
		<g>
			<g>
				<polygon class="st42" points="1068.6,829.1 1068.6,912.1 1078.5,912.1 1088.6,912.1 1088.6,829.1 1078.5,829.1 				"/>
				<polygon class="st42" points="1113.9,885.7 1110.1,860.1 1105.1,827.5 1105.1,827.5 1105.1,827.5 1097,828.7 1097,828.7 
					1088.9,830 1092.4,853.5 1092.4,853.5 1097.7,888.1 1097.7,888.1 1101.3,912.1 1117.5,909.6 				"/>
				<polygon class="st42" points="1047.8,791 1047.8,791 1041.8,791.6 1041.8,791.9 1041.8,791.9 1042.3,797.2 1042.4,797.4 
					1043.6,810.1 1029.6,810.1 1015.6,810.1 1015.6,813.6 1015.6,819.4 1015.6,829 1015.6,850.3 1015.6,864.9 1015.6,886.2 
					1015.6,901 1015.6,906.8 1015.6,912.1 1029.6,912.1 1043.6,912.1 1043.6,906.8 1043.6,901 1043.6,886.2 1043.6,864.9 
					1043.6,850.3 1043.6,829 1043.6,819.4 1043.6,813.6 1043.6,810.7 1053.8,912.5 1059.8,912.1 1059.8,912.1 1065.8,911.4 
					1053.8,790.5 				"/>
				<path class="st42" d="M1521.8,878c-1.1,2.1-3.6,4.3-7.2,4.8c0-0.5,0-1,0-1.5v-8.2c2-0.9,5.2-2.6,7.2,0
					C1522.7,874.4,1522.7,876.2,1521.8,878z M1524.8,871c-2.7-3.6-7.2-3.2-10.2-1.9v-4h-26.7h-27.3v16.3c0,12.8,10.7,22.7,23.6,22.7
					h-28.8c1.6,3,3.5,5,6.4,7h26.2h26.2c1.8-1,4.3-3,6.4-7h-28.8c11,0,20.2-7.4,22.6-17.7c4.6-0.2,8.8-2.7,10.8-6.7
					C1526.7,876.5,1526.5,873.3,1524.8,871z"/>
			</g>
			<path class="st42" d="M1395.1,726.5l-29.6-23.4h-42.4h-6.8l-7.7-6.7v-2.3h7.1l22.9-33.2v-18.1v-43.6c0-4.9,0-9.7,0-13.1
				c-0.1-19.3-22.7-23.2-22.7-23.2s-13.3,0-28.3,0c-10,0-21.8,0-29.5,0c-19.5,0-21.5,22.7-21.5,22.7V599v43.7v18.1l24.7,33.2h3.3
				v2.3l-12.4,6.7h-1.3h-24h-15.6l-1.7,1.7l-23.3,31.4L1159.7,915h89h76.8h89L1395.1,726.5z"/>
		</g>
		<g>
			<g>
				<polygon class="st43" points="1069.6,828.3 1069.6,911.3 1079.5,911.3 1089.6,911.3 1089.6,828.3 1079.5,828.3 				"/>
				<polygon class="st43" points="1114.9,884.9 1111.1,859.3 1106.2,826.7 1106.2,826.7 1106.2,826.7 1098,827.9 1098,827.9 
					1089.9,829.1 1093.4,852.6 1093.4,852.6 1098.7,887.3 1098.7,887.3 1102.3,911.3 1118.6,908.8 				"/>
				<polygon class="st43" points="1048.8,790.2 1048.8,790.2 1042.8,790.8 1042.8,791 1042.8,791 1043.3,796.3 1043.4,796.6 
					1044.6,809.3 1030.6,809.3 1016.6,809.3 1016.6,812.7 1016.6,818.6 1016.6,828.2 1016.6,849.5 1016.6,864.1 1016.6,885.4 
					1016.6,900.1 1016.6,906 1016.6,911.3 1030.6,911.3 1044.6,911.3 1044.6,906 1044.6,900.1 1044.6,885.4 1044.6,864.1 
					1044.6,849.5 1044.6,828.2 1044.6,818.6 1044.6,812.7 1044.6,809.9 1054.8,911.7 1060.8,911.3 1060.8,911.3 1066.8,910.5 
					1054.8,789.7 				"/>
				<path class="st43" d="M1522.8,877.2c-1.1,2.1-3.6,4.3-7.2,4.8c0-0.5,0-1,0-1.5v-8.2c2-0.9,5.2-2.6,7.2,0
					C1523.7,873.6,1523.8,875.4,1522.8,877.2z M1525.8,870.1c-2.7-3.6-7.2-3.2-10.2-1.9v-4h-26.7h-27.3v16.3
					c0,12.8,10.7,22.8,23.6,22.8h-28.8c1.6,3,3.5,5,6.4,7h26.2h26.2c1.8-1,4.3-3,6.4-7h-28.8c11,0,20.2-7.4,22.6-17.7
					c4.6-0.2,8.8-2.7,10.8-6.7C1527.7,875.7,1527.6,872.5,1525.8,870.1z"/>
			</g>
			<path class="st43" d="M1396.2,726.4l-29.7-24.2h-42.4h-6.8l-7.7-6.7v-2.3h7.1l22.9-33.2v-18v-43.1c0-4.9,0-9.8,0-13.2
				c-0.2-19.4-22.7-23.2-22.7-23.2s-13.3,0-28.3,0c-10,0-21.8,0-29.5,0c-19.5,0-21.5,22.4-21.5,22.4v13.4V642v18.1l24.7,33.2h3.3
				v2.3l-12.4,6.7h-1.3h-24h-15.6l-1.4,2.3l-23.6,30.8l-26.6,178.9h89h76.8h89L1396.2,726.4z"/>
		</g>
		<g>
			<g>
				<polygon class="st44" points="1070.6,827.4 1070.6,910.4 1080.5,910.4 1090.6,910.4 1090.6,827.4 1080.5,827.4 				"/>
				<polygon class="st44" points="1116,884 1112.1,858.5 1107.2,825.8 1107.2,825.8 1107.2,825.8 1099,827.1 1099,827.1 
					1090.9,828.3 1094.5,851.8 1094.5,851.8 1099.7,886.5 1099.7,886.5 1103.3,910.4 1119.6,908 				"/>
				<polygon class="st44" points="1049.8,789.4 1049.8,789.4 1043.8,790 1043.9,790.2 1043.8,790.2 1044.4,795.5 1044.4,795.8 
					1045.6,808.4 1031.6,808.4 1017.6,808.4 1017.6,811.9 1017.6,817.8 1017.6,827.4 1017.6,848.7 1017.6,863.3 1017.6,884.6 
					1017.6,899.3 1017.6,905.2 1017.6,910.4 1031.6,910.4 1045.6,910.4 1045.6,905.2 1045.6,899.3 1045.6,884.6 1045.6,863.3 
					1045.6,848.7 1045.6,827.4 1045.6,817.8 1045.6,811.9 1045.6,809.1 1055.8,910.9 1061.8,910.4 1061.8,910.4 1067.9,909.7 
					1055.8,788.8 				"/>
				<path class="st44" d="M1523.8,876.4c-1.1,2.1-3.6,4.3-7.2,4.8c0-0.5,0-1,0-1.5v-8.2c2-0.9,5.2-2.6,7.2,0
					C1524.7,872.7,1524.8,874.5,1523.8,876.4z M1526.8,869.3c-2.7-3.6-7.2-3.2-10.2-1.9v-4h-26.7h-27.3v16.3
					c0,12.8,10.7,22.7,23.6,22.7h-28.8c1.6,3,3.5,5,6.4,7h26.2h26.2c1.8-1,4.3-3,6.4-7h-28.8c11,0,20.2-7.4,22.6-17.7
					c4.6-0.2,8.8-2.7,10.8-6.7C1528.7,874.8,1528.6,871.7,1526.8,869.3z"/>
			</g>
			<path class="st44" d="M1397.3,726.3l-29.7-24.9h-42.4h-6.8l-7.7-6.7v-2.3h7.1l22.9-33.2v-18.1v-42.6c0-4.9,0.1-9.9,0-13.3
				c-0.2-19.5-22.7-23.3-22.7-23.3s-13.3,0-28.3,0c-10,0-21.8,0-29.5,0c-19.5,0-21.5,22.2-21.5,22.2v13.4v43.7v18.1l24.7,33.2h3.3
				v2.3l-12.4,6.7h-1.3h-24h-15.6l-1,2.8l-23.9,30.3l-26.6,178.9h89h76.8h89L1397.3,726.3z"/>
		</g>
		<g>
			<g>
				<polygon class="st45" points="1071.7,826.6 1071.7,909.6 1081.5,909.6 1091.7,909.6 1091.7,826.6 1081.5,826.6 				"/>
				<polygon class="st45" points="1117,883.2 1113.1,857.7 1108.2,825 1108.2,825 1108.2,825 1100.1,826.2 1100.1,826.2 
					1091.9,827.5 1095.5,851 1095.5,851 1100.7,885.7 1100.7,885.7 1104.3,909.6 1120.6,907.2 				"/>
				<polygon class="st45" points="1050.9,788.5 1050.9,788.5 1044.9,789.1 1044.9,789.4 1044.9,789.4 1045.4,794.7 1045.4,794.9 
					1046.7,807.6 1032.6,807.6 1018.7,807.6 1018.7,811.1 1018.7,816.9 1018.7,826.6 1018.7,847.9 1018.7,862.5 1018.7,883.8 
					1018.7,898.5 1018.7,904.3 1018.7,909.6 1032.6,909.6 1046.7,909.6 1046.7,904.3 1046.7,898.5 1046.7,883.8 1046.7,862.5 
					1046.7,847.9 1046.7,826.6 1046.7,816.9 1046.7,811.1 1046.7,808.3 1056.8,910.1 1062.8,909.6 1062.9,909.6 1068.9,908.9 
					1056.9,788 				"/>
				<path class="st45" d="M1524.9,875.6c-1.1,2.1-3.6,4.3-7.2,4.8c0-0.5,0-1,0-1.5v-8.2c2-0.9,5.2-2.6,7.2,0
					C1525.8,871.9,1525.8,873.7,1524.9,875.6z M1527.8,868.5c-2.7-3.6-7.2-3.2-10.2-1.9v-4h-26.7h-27.3v16.3
					c0,12.8,10.7,22.7,23.6,22.7h-28.8c1.6,3,3.5,5,6.4,7h26.2h26.2c1.8-1,4.3-3,6.4-7h-28.8c11,0,20.2-7.4,22.6-17.7
					c4.6-0.2,8.8-2.7,10.8-6.7C1529.7,874,1529.6,870.8,1527.8,868.5z"/>
			</g>
			<path class="st45" d="M1398.4,726.3l-29.8-25.6h-42.4h-6.8l-7.7-6.7v-2.3h7.1l22.9-33.2v-18.1v-42.2c0-4.9,0.1-10,0-13.4
				c-0.3-19.5-22.7-23.4-22.7-23.4s-13.3,0-28.3,0c-10,0-21.8,0-29.5,0c-19.5,0-21.5,21.9-21.5,21.9v13.4v43.7v18.1l24.7,33.2h3.3
				v2.3l-12.4,6.7h-1.3h-24h-15.6l-0.7,3.4l-24.3,29.7l-26.6,178.9h89h76.8h89L1398.4,726.3z"/>
		</g>
		<g>
			<g>
				<polygon class="st46" points="1072.7,825.8 1072.7,908.8 1082.6,908.8 1092.7,908.8 1092.7,825.8 1082.6,825.8 				"/>
				<polygon class="st46" points="1118,882.4 1114.2,856.8 1109.2,824.2 1109.2,824.2 1109.2,824.2 1101.1,825.4 1101.1,825.4 
					1093,826.6 1096.5,850.1 1096.5,850.1 1101.7,884.8 1101.7,884.8 1105.4,908.8 1121.6,906.3 				"/>
				<polygon class="st46" points="1051.9,787.7 1051.9,787.7 1045.9,788.3 1045.9,788.6 1045.9,788.6 1046.4,793.9 1046.4,794.1 
					1047.7,806.8 1033.7,806.8 1019.7,806.8 1019.7,810.3 1019.7,816.1 1019.7,825.7 1019.7,847 1019.7,861.6 1019.7,882.9 
					1019.7,897.7 1019.7,903.5 1019.7,908.8 1033.7,908.8 1047.7,908.8 1047.7,903.5 1047.7,897.7 1047.7,882.9 1047.7,861.6 
					1047.7,847 1047.7,825.7 1047.7,816.1 1047.7,810.3 1047.7,807.4 1057.8,909.2 1063.9,908.8 1063.9,908.8 1069.9,908.1 
					1057.9,787.2 				"/>
				<path class="st46" d="M1525.9,874.7c-1.1,2.1-3.6,4.3-7.2,4.8c0-0.5,0-1,0-1.5v-8.2c2-0.9,5.2-2.6,7.2,0
					C1526.8,871.1,1526.8,872.9,1525.9,874.7z M1528.8,867.7c-2.7-3.6-7.2-3.2-10.2-1.9v-4H1492h-27.3V878
					c0,12.8,10.7,22.7,23.6,22.7h-28.8c1.6,3,3.5,5,6.4,7h26.1h26.2c1.8-1,4.3-3,6.4-7h-28.8c11,0,20.2-7.4,22.6-17.7
					c4.6-0.2,8.8-2.7,10.8-6.7C1530.8,873.2,1530.6,870,1528.8,867.7z"/>
			</g>
			<path class="st46" d="M1399.5,726.2l-29.9-26.4h-42.4h-6.8l-7.7-6.7v-2.3h7.1l22.9-33.2v-18.1v-41.7c0-4.9,0.1-10.1,0-13.5
				c-0.3-19.6-22.7-23.5-22.7-23.5s-13.3,0-28.3,0c-10,0-21.8,0-29.5,0c-19.5,0-21.5,21.6-21.5,21.6v13.4v43.7v18.1l24.7,33.2h3.3
				v2.3l-12.4,6.7h-1.3h-24h-15.6l-0.4,3.9l-24.6,29.1l-26.6,178.9h89h76.8h89L1399.5,726.2z"/>
		</g>
		<g>
			<g>
				<polygon class="st47" points="1073.7,825 1073.7,908 1083.6,908 1093.7,908 1093.7,825 1083.6,825 				"/>
				<polygon class="st47" points="1119,881.6 1115.2,856 1110.3,823.4 1110.3,823.4 1110.3,823.4 1102.1,824.6 1102.1,824.6 
					1094,825.8 1097.5,849.3 1097.5,849.3 1102.8,884 1102.8,884 1106.4,908 1122.7,905.5 				"/>
				<polygon class="st47" points="1052.9,786.9 1052.9,786.9 1046.9,787.5 1046.9,787.7 1046.9,787.7 1047.4,793 1047.5,793.3 
					1048.7,806 1034.7,806 1020.7,806 1020.7,809.4 1020.7,815.3 1020.7,824.9 1020.7,846.2 1020.7,860.8 1020.7,882.1 
					1020.7,896.8 1020.7,902.7 1020.7,908 1034.7,908 1048.7,908 1048.7,902.7 1048.7,896.8 1048.7,882.1 1048.7,860.8 
					1048.7,846.2 1048.7,824.9 1048.7,815.3 1048.7,809.4 1048.7,806.6 1058.9,908.4 1064.9,908 1064.9,908 1070.9,907.2 
					1058.9,786.4 				"/>
				<path class="st47" d="M1526.9,873.9c-1.1,2.1-3.6,4.3-7.2,4.8c0-0.5,0-1,0-1.5V869c2-0.9,5.2-2.6,7.2,0
					C1527.8,870.3,1527.9,872.1,1526.9,873.9z M1529.9,866.8c-2.7-3.6-7.2-3.2-10.2-1.9v-4H1493h-27.3v16.3
					c0,12.8,10.7,22.7,23.6,22.7h-28.8c1.6,3,3.5,5,6.4,7h26.1h26.2c1.8-1,4.3-3,6.4-7h-28.8c11,0,20.2-7.4,22.6-17.7
					c4.6-0.2,8.8-2.7,10.8-6.7C1531.8,872.4,1531.7,869.2,1529.9,866.8z"/>
			</g>
			<path class="st47" d="M1400.5,726.1l-30-27.1h-42.4h-6.8l-7.7-6.7V690h7.1l22.9-33.2v-18.1v-41.2c0-4.9,0.1-10.2,0-13.6
				c-0.4-19.6-22.7-23.6-22.7-23.6s-13.3,0-28.3,0c-10,0-21.8,0-29.5,0c-19.5,0-21.5,21.3-21.5,21.3V595v43.7v18.1l24.7,33.2h3.3
				v2.3l-12.4,6.7h-1.2h-24h-15.6v4.5l-25,28.6L1164.7,911h89h76.8h89L1400.5,726.1z"/>
		</g>
		<g>
			<g>
				<polygon class="st48" points="1074.7,824.1 1074.7,907.1 1084.6,907.1 1094.7,907.1 1094.7,824.1 1084.6,824.1 				"/>
				<polygon class="st48" points="1120.1,880.7 1116.2,855.2 1111.3,822.5 1111.3,822.5 1111.3,822.5 1103.1,823.8 1103.1,823.8 
					1095,825 1098.6,848.5 1098.6,848.5 1103.8,883.2 1103.8,883.2 1107.4,907.1 1123.7,904.7 				"/>
				<polygon class="st48" points="1053.9,786.1 1053.9,786.1 1047.9,786.7 1048,786.9 1047.9,786.9 1048.5,792.2 1048.5,792.5 
					1049.7,805.1 1035.7,805.1 1021.7,805.1 1021.7,808.6 1021.7,814.5 1021.7,824.1 1021.7,845.4 1021.7,860 1021.7,881.3 
					1021.7,896 1021.7,901.9 1021.7,907.1 1035.7,907.1 1049.7,907.1 1049.7,901.9 1049.7,896 1049.7,881.3 1049.7,860 
					1049.7,845.4 1049.7,824.1 1049.7,814.5 1049.7,808.6 1049.7,805.8 1059.9,907.6 1065.9,907.1 1065.9,907.1 1072,906.4 
					1059.9,785.5 				"/>
				<path class="st48" d="M1527.9,873.1c-1.1,2.1-3.6,4.3-7.2,4.8c0-0.5,0-1,0-1.5v-8.2c2-0.9,5.2-2.6,7.2,0
					C1528.8,869.4,1528.9,871.2,1527.9,873.1z M1530.9,866c-2.7-3.6-7.2-3.2-10.2-1.9v-4H1494h-27.3v16.3
					c0,12.8,10.7,22.8,23.6,22.8h-28.8c1.6,3,3.5,5,6.4,7h26.2h26.2c1.8-1,4.3-3,6.4-7h-28.8c11,0,20.2-7.4,22.6-17.7
					c4.6-0.2,8.8-2.7,10.8-6.7C1532.8,871.5,1532.7,868.4,1530.9,866z"/>
			</g>
			<path class="st48" d="M1401.6,726l-30-27.9h-42.4h-6.8l-7.7-6.7v-2.3h7.1l22.9-33.2v-18.1v-40.7c0-4.9,0.1-10.3,0-13.7
				c-0.4-19.7-22.7-23.7-22.7-23.7s-13.3,0-28.3,0c-10,0-21.8,0-29.5,0c-19.5,0-21.5,21-21.5,21v13.4v43.7v18.1l24.7,33.2h3.3v2.3
				l-12.4,6.7h-1.3h-24h-15.6l0.3,5.1l-25.3,28l-26.6,178.9h89h76.8h89L1401.6,726z"/>
		</g>
		<g>
			<g>
				<polygon class="st49" points="1075.7,823.3 1075.7,906.3 1085.6,906.3 1095.7,906.3 1095.7,823.3 1085.6,823.3 				"/>
				<polygon class="st49" points="1121.1,879.9 1117.2,854.4 1112.3,821.7 1112.3,821.7 1112.3,821.7 1104.2,822.9 1104.2,822.9 
					1096,824.2 1099.6,847.7 1099.6,847.7 1104.8,882.4 1104.8,882.4 1108.4,906.3 1124.7,903.9 				"/>
				<polygon class="st49" points="1055,785.2 1055,785.2 1049,785.8 1049,786.1 1049,786.1 1049.5,791.4 1049.5,791.6 1050.7,804.3 
					1036.7,804.3 1022.7,804.3 1022.7,807.8 1022.7,813.6 1022.7,823.3 1022.7,844.6 1022.7,859.2 1022.7,880.5 1022.7,895.2 
					1022.7,901 1022.7,906.3 1036.7,906.3 1050.7,906.3 1050.7,901 1050.7,895.2 1050.7,880.5 1050.7,859.2 1050.7,844.6 
					1050.7,823.3 1050.7,813.6 1050.7,807.8 1050.7,805 1060.9,906.8 1066.9,906.3 1067,906.3 1073,905.6 1061,784.7 				"/>
				<path class="st49" d="M1528.9,872.3c-1.1,2.1-3.6,4.3-7.2,4.8c0-0.5,0-1,0-1.5v-8.2c2-0.9,5.2-2.6,7.2,0
					C1529.9,868.6,1529.9,870.4,1528.9,872.3z M1531.9,865.2c-2.7-3.6-7.2-3.2-10.2-1.9v-4H1495h-27.3v16.3
					c0,12.8,10.7,22.7,23.6,22.7h-28.8c1.6,3,3.5,5,6.4,7h26.2h26.2c1.8-1,4.3-3,6.4-7h-28.8c11,0,20.2-7.4,22.6-17.7
					c4.6-0.2,8.8-2.7,10.8-6.7C1533.8,870.7,1533.7,867.5,1531.9,865.2z"/>
			</g>
			<path class="st49" d="M1402.7,725.9l-30.1-28.6h-42.4h-6.8l-7.7-6.7v-2.3h7.1l22.9-33.2V637v-40.2c0-4.9,0.1-10.4,0-13.8
				c-0.4-19.8-22.7-23.7-22.7-23.7s-13.3,0-28.3,0c-10,0-21.8,0-29.5,0c-19.5,0-21.5,20.7-21.5,20.7v13.4v43.7v18.1l24.7,33.2h3.3
				v2.3l-12.4,6.7h-1.3h-24h-15.6l0.7,5.6l-25.6,27.4l-26.6,178.9h89h76.8h89L1402.7,725.9z"/>
		</g>
		<g>
			<g>
				<polygon class="st50" points="1076.8,822.5 1076.8,905.5 1086.7,905.5 1096.8,905.5 1096.8,822.5 1086.7,822.5 				"/>
				<polygon class="st50" points="1122.1,879.1 1118.3,853.5 1113.3,820.9 1113.3,820.9 1113.3,820.9 1105.2,822.1 1105.2,822.1 
					1097.1,823.3 1100.6,846.8 1100.6,846.8 1105.8,881.5 1105.8,881.5 1109.5,905.5 1125.7,903 				"/>
				<polygon class="st50" points="1056,784.4 1056,784.4 1050,785 1050,785.2 1050,785.3 1050.5,790.6 1050.5,790.8 1051.8,803.5 
					1037.8,803.5 1023.8,803.5 1023.8,807 1023.8,812.8 1023.8,822.4 1023.8,843.7 1023.8,858.3 1023.8,879.6 1023.8,894.4 
					1023.8,900.2 1023.8,905.5 1037.8,905.5 1051.8,905.5 1051.8,900.2 1051.8,894.4 1051.8,879.6 1051.8,858.3 1051.8,843.7 
					1051.8,822.4 1051.8,812.8 1051.8,807 1051.8,804.1 1061.9,905.9 1068,905.5 1068,905.5 1074,904.7 1062,783.9 				"/>
				<path class="st50" d="M1530,871.4c-1.1,2.1-3.6,4.3-7.2,4.8c0-0.5,0-1,0-1.5v-8.2c2-0.9,5.2-2.6,7.2,0
					C1530.9,867.8,1530.9,869.6,1530,871.4z M1532.9,864.4c-2.7-3.6-7.2-3.2-10.2-1.9v-4H1496h-27.3v16.3
					c0,12.8,10.7,22.7,23.6,22.7h-28.8c1.6,3,3.5,5,6.4,7h26.2h26.2c1.8-1,4.3-3,6.4-7h-28.8c11,0,20.2-7.4,22.6-17.7
					c4.6-0.2,8.8-2.7,10.8-6.7C1534.9,869.9,1534.7,866.7,1532.9,864.4z"/>
			</g>
			<path class="st50" d="M1403.8,725.8l-30.2-29.3h-42.4h-6.8l-7.7-6.7v-2.3h7.1l22.9-33.2v-18.1v-39.7c0-4.9,0.1-10.5,0-13.9
				c-0.5-19.8-22.7-23.8-22.7-23.8s-13.3,0-28.3,0c-10,0-21.8,0-29.5,0c-19.5,0-21.5,20.4-21.5,20.4v13.4v43.7v18.1l24.7,33.2h3.3
				v2.3l-12.4,6.7h-1.3h-24h-15.6l1,6.2l-26,26.9l-26.6,178.9h89h76.8h89L1403.8,725.8z"/>
		</g>
		<g>
			<g>
				<polygon class="st51" points="1077.8,821.7 1077.8,904.7 1087.7,904.7 1097.8,904.7 1097.8,821.7 1087.7,821.7 				"/>
				<polygon class="st51" points="1123.1,878.3 1119.3,852.7 1114.3,820.1 1114.3,820.1 1114.3,820.1 1106.2,821.3 1106.2,821.3 
					1098.1,822.5 1101.6,846 1101.6,846 1106.9,880.7 1106.9,880.7 1110.5,904.7 1126.7,902.2 				"/>
				<polygon class="st51" points="1057,783.6 1057,783.6 1051,784.2 1051,784.4 1051,784.4 1051.5,789.7 1051.6,790 1052.8,802.7 
					1038.8,802.7 1024.8,802.7 1024.8,806.1 1024.8,812 1024.8,821.6 1024.8,842.9 1024.8,857.5 1024.8,878.8 1024.8,893.5 
					1024.8,899.4 1024.8,904.7 1038.8,904.7 1052.8,904.7 1052.8,899.4 1052.8,893.5 1052.8,878.8 1052.8,857.5 1052.8,842.9 
					1052.8,821.6 1052.8,812 1052.8,806.1 1052.8,803.3 1063,905.1 1069,904.7 1069,904.7 1075,903.9 1063,783.1 				"/>
				<path class="st51" d="M1531,870.6c-1.1,2.1-3.6,4.3-7.2,4.8c0-0.5,0-1,0-1.5v-8.2c2-0.9,5.2-2.6,7.2,0
					C1531.9,867,1532,868.8,1531,870.6z M1534,863.5c-2.7-3.6-7.2-3.2-10.2-1.9v-4h-26.7h-27.3v16.3c0,12.8,10.7,22.7,23.6,22.7
					h-28.8c1.6,3,3.5,5,6.4,7h26.2h26.2c1.8-1,4.3-3,6.4-7H1501c11,0,20.2-7.4,22.6-17.7c4.6-0.2,8.8-2.7,10.8-6.7
					C1535.9,869,1535.7,865.9,1534,863.5z"/>
			</g>
			<path class="st51" d="M1404.9,725.7l-30.3-30.1h-42.4h-6.8l-7.7-6.7v-2.3h7.1l22.9-33.2v-18.1V596c0-4.9,0.1-10.6,0.1-14.1
				c-0.5-19.9-22.7-23.9-22.7-23.9s-13.3,0-28.3,0c-10,0-21.8,0-29.5,0c-19.5,0-21.5,20.1-21.5,20.1v13.4v43.7v18.1l24.7,33.2h3.3
				v2.3l-12.4,6.7h-1.3h-24h-15.6l1.3,6.8l-26.3,26.3l-26.6,178.9h89h76.8h89L1404.9,725.7z"/>
		</g>
		<g>
			<g>
				<polygon class="st52" points="1078.8,820.8 1078.8,903.8 1088.7,903.8 1098.8,903.8 1098.8,820.8 1088.7,820.8 				"/>
				<polygon class="st52" points="1124.2,877.4 1120.3,851.9 1115.4,819.2 1115.4,819.2 1115.4,819.2 1107.2,820.5 1107.2,820.5 
					1099.1,821.7 1102.6,845.2 1102.6,845.2 1107.9,879.9 1107.9,879.9 1111.5,903.8 1127.8,901.4 				"/>
				<polygon class="st52" points="1058,782.8 1058,782.8 1052,783.4 1052.1,783.6 1052,783.6 1052.6,788.9 1052.6,789.2 
					1053.8,801.8 1039.8,801.8 1025.8,801.8 1025.8,805.3 1025.8,811.2 1025.8,820.8 1025.8,842.1 1025.8,856.7 1025.8,878 
					1025.8,892.7 1025.8,898.6 1025.8,903.8 1039.8,903.8 1053.8,903.8 1053.8,898.6 1053.8,892.7 1053.8,878 1053.8,856.7 
					1053.8,842.1 1053.8,820.8 1053.8,811.2 1053.8,805.3 1053.8,802.5 1064,904.3 1070,903.8 1070,903.8 1076,903.1 1064,782.2 
									"/>
				<path class="st52" d="M1532,869.8c-1.1,2.1-3.6,4.3-7.2,4.8c0-0.5,0-1,0-1.5v-8.2c2-0.9,5.2-2.6,7.2,0
					C1532.9,866.1,1533,867.9,1532,869.8z M1535,862.7c-2.7-3.6-7.2-3.2-10.2-1.9v-4h-26.7h-27.3v16.3c0,12.8,10.7,22.7,23.6,22.7
					h-28.8c1.6,3,3.5,5,6.4,7h26.2h26.2c1.8-1,4.3-3,6.4-7H1502c11,0,20.2-7.4,22.6-17.7c4.6-0.2,8.8-2.7,10.8-6.7
					C1536.9,868.2,1536.8,865.1,1535,862.7z"/>
			</g>
			<path class="st52" d="M1406,725.6l-30.3-30.8h-42.4h-6.8l-7.7-6.7v-2.3h7.1l22.9-33.2v-18.1v-38.8c0-4.9,0.2-10.7,0.1-14.2
				c-0.6-19.9-22.7-24-22.7-24s-13.3,0-28.3,0c-10,0-21.8,0-29.5,0c-19.5,0-21.5,19.8-21.5,19.8v13.4v43.7v18.1l24.7,33.2h3.3v2.3
				l-12.4,6.7h-1.3h-24h-15.6l1.7,7.3l-26.6,25.7l-26.6,178.9h89h76.8h89L1406,725.6z"/>
		</g>
		<g>
			<g>
				<polygon class="st53" points="1079.8,820 1079.8,903 1089.7,903 1099.8,903 1099.8,820 1089.7,820 				"/>
				<polygon class="st53" points="1125.2,876.6 1121.3,851.1 1116.4,818.4 1116.4,818.4 1116.4,818.4 1108.2,819.6 1108.2,819.6 
					1100.1,820.9 1103.7,844.4 1103.7,844.4 1108.9,879.1 1108.9,879.1 1112.5,903 1128.8,900.6 				"/>
				<polygon class="st53" points="1059,781.9 1059,781.9 1053.1,782.5 1053.1,782.8 1053.1,782.8 1053.6,788.1 1053.6,788.3 
					1054.8,801 1040.8,801 1026.8,801 1026.8,804.5 1026.8,810.3 1026.8,820 1026.8,841.3 1026.8,855.9 1026.8,877.2 1026.8,891.9 
					1026.8,897.7 1026.8,903 1040.8,903 1054.8,903 1054.8,897.7 1054.8,891.9 1054.8,877.2 1054.8,855.9 1054.8,841.3 1054.8,820 
					1054.8,810.3 1054.8,804.5 1054.8,801.6 1065,903.5 1071,903 1071,903 1077.1,902.3 1065.1,781.4 				"/>
				<path class="st53" d="M1533,869c-1.1,2.1-3.6,4.3-7.2,4.8c0-0.5,0-1,0-1.5v-8.2c2-0.9,5.2-2.6,7.2,0
					C1533.9,865.3,1534,867.1,1533,869z M1536,861.9c-2.7-3.6-7.2-3.2-10.2-1.9v-4h-26.7h-27.3v16.3c0,12.8,10.7,22.8,23.6,22.8
					h-28.8c1.6,3,3.5,5,6.4,7h26.2h26.2c1.8-1,4.3-3,6.4-7H1503c11,0,20.2-7.4,22.6-17.7c4.6-0.2,8.8-2.7,10.8-6.7
					C1537.9,867.4,1537.8,864.2,1536,861.9z"/>
			</g>
			<path class="st53" d="M1407.1,725.5l-30.4-31.5h-42.4h-6.8l-7.7-6.7V685h7.1l22.9-33.2v-18.1v-38.3c0-4.9,0.2-10.8,0.1-14.3
				c-0.6-20-22.7-24.1-22.7-24.1s-13.3,0-28.3,0c-10,0-21.8,0-29.5,0c-19.5,0-21.5,19.5-21.5,19.5V590v43.7v18.1l24.7,33.2h3.3v2.3
				l-12.4,6.7h-1.3h-24h-15.6l2,7.9l-27,25.2L1170.8,906h89h76.8h89L1407.1,725.5z"/>
		</g>
		<g>
			<g>
				<polygon class="st54" points="1080.9,819.2 1080.9,902.2 1090.7,902.2 1100.9,902.2 1100.9,819.2 1090.7,819.2 				"/>
				<polygon class="st54" points="1126.2,875.8 1122.3,850.2 1117.4,817.6 1117.4,817.6 1117.4,817.6 1109.3,818.8 1109.3,818.8 
					1101.1,820 1104.7,843.5 1104.7,843.5 1109.9,878.2 1109.9,878.2 1113.5,902.2 1129.8,899.7 				"/>
				<polygon class="st54" points="1060.1,781.1 1060.1,781.1 1054.1,781.7 1054.1,781.9 1054.1,781.9 1054.6,787.3 1054.6,787.5 
					1055.9,800.2 1041.8,800.2 1027.9,800.2 1027.9,803.7 1027.9,809.5 1027.9,819.1 1027.9,840.4 1027.9,855 1027.9,876.3 
					1027.9,891.1 1027.9,896.9 1027.9,902.2 1041.8,902.2 1055.9,902.2 1055.9,896.9 1055.9,891.1 1055.9,876.3 1055.9,855 
					1055.9,840.4 1055.9,819.1 1055.9,809.5 1055.9,803.7 1055.9,800.8 1066,902.6 1072.1,902.2 1072.1,902.2 1078.1,901.4 
					1066.1,780.6 				"/>
				<path class="st54" d="M1534.1,868.1c-1.1,2.1-3.6,4.3-7.2,4.8c0-0.5,0-1,0-1.5v-8.2c2-0.9,5.2-2.6,7.2,0
					C1535,864.5,1535,866.3,1534.1,868.1z M1537,861c-2.7-3.6-7.2-3.2-10.2-1.9v-4h-26.7h-27.3v16.3c0,12.8,10.7,22.7,23.6,22.7
					h-28.8c1.6,3,3.5,5,6.4,7h26.2h26.2c1.8-1,4.3-3,6.4-7H1504c11,0,20.2-7.4,22.6-17.7c4.6-0.2,8.8-2.7,10.8-6.7
					C1539,866.6,1538.8,863.4,1537,861z"/>
			</g>
			<path class="st54" d="M1408.2,725.5l-30.5-32.3h-42.4h-6.8l-7.7-6.7v-2.3h7.1l22.9-33.2v-18.1v-37.8c0-4.9,0.2-11,0.1-14.4
				c-0.7-20.1-22.7-24.1-22.7-24.1s-13.3,0-28.3,0c-10,0-21.8,0-29.5,0c-19.5,0-21.5,19.2-21.5,19.2v13.4v43.7V651l24.7,33.2h3.3
				v2.3l-12.4,6.7h-1.3h-24h-15.6l2.3,8.5l-27.3,24.6L1172,905.2h89h76.8h89L1408.2,725.5z"/>
		</g>
		<g>
			<g>
				<polygon class="st55" points="1081.9,818.4 1081.9,901.4 1091.8,901.4 1101.9,901.4 1101.9,818.4 1091.8,818.4 				"/>
				<polygon class="st55" points="1127.2,875 1123.4,849.4 1118.4,816.8 1118.4,816.8 1118.4,816.8 1110.3,818 1110.3,818 
					1102.2,819.2 1105.7,842.7 1105.7,842.7 1111,877.4 1111,877.4 1114.6,901.4 1130.8,898.9 				"/>
				<polygon class="st55" points="1061.1,780.3 1061.1,780.3 1055.1,780.9 1055.1,781.1 1055.1,781.1 1055.6,786.4 1055.6,786.7 
					1056.9,799.4 1042.9,799.4 1028.9,799.4 1028.9,802.8 1028.9,808.7 1028.9,818.3 1028.9,839.6 1028.9,854.2 1028.9,875.5 
					1028.9,890.2 1028.9,896.1 1028.9,901.4 1042.9,901.4 1056.9,901.4 1056.9,896.1 1056.9,890.2 1056.9,875.5 1056.9,854.2 
					1056.9,839.6 1056.9,818.3 1056.9,808.7 1056.9,802.8 1056.9,800 1067.1,901.8 1073.1,901.4 1073.1,901.4 1079.1,900.6 
					1067.1,779.7 				"/>
				<path class="st55" d="M1535.1,867.3c-1.1,2.1-3.6,4.3-7.2,4.8c0-0.5,0-1,0-1.5v-8.2c2-0.9,5.2-2.6,7.2,0
					C1536,863.6,1536,865.5,1535.1,867.3z M1538.1,860.2c-2.7-3.6-7.2-3.2-10.2-1.9v-4h-26.7h-27.3v16.3c0,12.8,10.7,22.7,23.6,22.7
					h-28.8c1.6,3,3.5,5,6.4,7h26.2h26.2c1.8-1,4.3-3,6.4-7h-28.8c11,0,20.2-7.4,22.6-17.7c4.6-0.2,8.8-2.7,10.8-6.7
					C1540,865.7,1539.8,862.6,1538.1,860.2z"/>
			</g>
			<path class="st55" d="M1409.3,725.4l-30.6-33h-42.4h-6.8l-7.7-6.7v-2.3h7.1l22.9-33.2v-18.1v-37.3c0-4.9,0.2-11.1,0.1-14.5
				c-0.7-20.1-22.7-24.2-22.7-24.2s-13.3,0-28.3,0c-10,0-21.8,0-29.5,0c-19.5,0-21.5,18.9-21.5,18.9v13.4v43.7v18.1l24.7,33.2h3.3
				v2.3l-12.4,6.7h-1.3h-24h-15.6l2.7,9l-27.7,24L1173,904.3h89h76.8h89L1409.3,725.4z"/>
		</g>
		<g>
			<g>
				<polygon class="st56" points="1082.9,817.5 1082.9,900.5 1092.8,900.5 1102.9,900.5 1102.9,817.5 1092.8,817.5 				"/>
				<polygon class="st56" points="1128.2,874.1 1124.4,848.6 1119.5,815.9 1119.5,815.9 1119.5,815.9 1111.3,817.2 1111.3,817.2 
					1103.2,818.4 1106.7,841.9 1106.7,841.9 1112,876.6 1112,876.6 1115.6,900.5 1131.9,898.1 				"/>
				<polygon class="st56" points="1062.1,779.5 1062.1,779.5 1056.1,780 1056.1,780.3 1056.1,780.3 1056.6,785.6 1056.7,785.9 
					1057.9,798.5 1043.9,798.5 1029.9,798.5 1029.9,802 1029.9,807.9 1029.9,817.5 1029.9,838.8 1029.9,853.4 1029.9,874.7 
					1029.9,889.4 1029.9,895.2 1029.9,900.5 1043.9,900.5 1057.9,900.5 1057.9,895.2 1057.9,889.4 1057.9,874.7 1057.9,853.4 
					1057.9,838.8 1057.9,817.5 1057.9,807.9 1057.9,802 1057.9,799.2 1068.1,901 1074.1,900.5 1074.1,900.5 1080.1,899.8 
					1068.1,778.9 				"/>
				<path class="st56" d="M1536.1,866.5c-1.1,2.1-3.6,4.3-7.2,4.8c0-0.5,0-1,0-1.5v-8.2c2-0.9,5.2-2.6,7.2,0
					C1537,862.8,1537.1,864.6,1536.1,866.5z M1539.1,859.4c-2.7-3.6-7.2-3.2-10.2-1.9v-4h-26.7h-27.3v16.3
					c0,12.8,10.7,22.7,23.6,22.7h-28.8c1.6,3,3.5,5,6.4,7h26.2h26.2c1.8-1,4.3-3,6.4-7h-28.8c11,0,20.2-7.4,22.6-17.7
					c4.6-0.2,8.8-2.7,10.8-6.7C1541,864.9,1540.9,861.7,1539.1,859.4z"/>
			</g>
			<path class="st56" d="M1410.4,725.3l-30.6-33.8h-42.4h-6.8l-7.7-6.7v-2.3h7.1l22.9-33.2v-18.1v-36.9c0-4.9,0.2-11.2,0.1-14.6
				c-0.7-20.2-22.7-24.3-22.7-24.3s-13.3,0-28.3,0c-10,0-21.8,0-29.5,0c-19.5,0-21.5,18.6-21.5,18.6v13.4v43.7v18.1l24.7,33.2h3.3
				v2.3l-12.4,6.7h-1.3h-24h-15.6l3,9.6l-28,23.5l-26.6,178.9h89h76.8h89L1410.4,725.3z"/>
		</g>
		<g>
			<g>
				<polygon class="st57" points="1083.9,816.7 1083.9,899.7 1093.8,899.7 1103.9,899.7 1103.9,816.7 1093.8,816.7 				"/>
				<polygon class="st57" points="1129.3,873.3 1125.4,847.8 1120.5,815.1 1120.5,815.1 1120.5,815.1 1112.3,816.3 1112.3,816.3 
					1104.2,817.6 1107.8,841.1 1107.8,841.1 1113,875.8 1113,875.8 1116.6,899.7 1132.9,897.2 				"/>
				<polygon class="st57" points="1063.1,778.6 1063.1,778.6 1057.1,779.2 1057.2,779.5 1057.1,779.5 1057.7,784.8 1057.7,785 
					1058.9,797.7 1044.9,797.7 1030.9,797.7 1030.9,801.2 1030.9,807 1030.9,816.7 1030.9,838 1030.9,852.5 1030.9,873.8 
					1030.9,888.6 1030.9,894.4 1030.9,899.7 1044.9,899.7 1058.9,899.7 1058.9,894.4 1058.9,888.6 1058.9,873.8 1058.9,852.5 
					1058.9,838 1058.9,816.7 1058.9,807 1058.9,801.2 1058.9,798.3 1069.1,900.2 1075.1,899.7 1075.1,899.7 1081.2,899 
					1069.1,778.1 				"/>
				<path class="st57" d="M1537.1,865.6c-1.1,2.1-3.6,4.3-7.2,4.8c0-0.5,0-1,0-1.5v-8.2c2-0.9,5.2-2.6,7.2,0
					C1538,862,1538.1,863.8,1537.1,865.6z M1540.1,858.6c-2.7-3.6-7.2-3.2-10.2-1.9v-4h-26.7h-27.3V869c0,12.8,10.7,22.7,23.6,22.7
					h-28.8c1.6,3,3.5,5,6.4,7h26.2h26.2c1.8-1,4.3-3,6.4-7h-28.8c11,0,20.2-7.4,22.6-17.7c4.6-0.2,8.8-2.7,10.8-6.7
					C1542,864.1,1541.9,860.9,1540.1,858.6z"/>
			</g>
			<path class="st57" d="M1411.5,725.2l-30.7-34.5h-42.4h-6.8l-7.7-6.7v-2.3h7.1l22.9-33.2v-18.1V594c0-4.9,0.2-11.3,0.1-14.7
				c-0.8-20.2-22.7-24.4-22.7-24.4s-13.3,0-28.3,0c-10,0-21.8,0-29.5,0c-19.5,0-21.5,18.3-21.5,18.3v13.4v43.7v18.1l24.7,33.2h3.3
				v2.3l-12.4,6.7h-1.3h-24h-15.6l3.4,10.2l-28.3,22.9l-26.6,178.9h89h76.8h89L1411.5,725.2z"/>
		</g>
		<g>
			<g>
				<polygon class="st58" points="1085,815.9 1085,898.9 1094.8,898.9 1105,898.9 1105,815.9 1094.8,815.9 				"/>
				<polygon class="st58" points="1130.3,872.5 1126.4,846.9 1121.5,814.3 1121.5,814.3 1121.5,814.3 1113.4,815.5 1113.4,815.5 
					1105.2,816.7 1108.8,840.2 1108.8,840.2 1114,874.9 1114,874.9 1117.6,898.9 1133.9,896.4 				"/>
				<polygon class="st58" points="1064.2,777.8 1064.2,777.8 1058.2,778.4 1058.2,778.6 1058.2,778.6 1058.7,784 1058.7,784.2 
					1060,796.9 1045.9,796.9 1032,796.9 1032,800.4 1032,806.2 1032,815.8 1032,837.1 1032,851.7 1032,873 1032,887.7 1032,893.6 
					1032,898.9 1045.9,898.9 1060,898.9 1060,893.6 1060,887.7 1060,873 1060,851.7 1060,837.1 1060,815.8 1060,806.2 1060,800.4 
					1060,797.5 1070.1,899.3 1076.1,898.9 1076.2,898.9 1082.2,898.1 1070.2,777.3 				"/>
				<path class="st58" d="M1538.2,864.8c-1.1,2.1-3.6,4.3-7.2,4.8c0-0.5,0-1,0-1.5V860c2-0.9,5.2-2.6,7.2,0
					C1539.1,861.2,1539.1,863,1538.2,864.8z M1541.1,857.7c-2.7-3.6-7.2-3.2-10.2-1.9v-4h-26.7H1477v16.3
					c0,12.8,10.7,22.7,23.6,22.7h-28.8c1.6,3,3.5,5,6.4,7h26.2h26.2c1.8-1,4.3-3,6.4-7h-28.8c11,0,20.2-7.4,22.6-17.7
					c4.6-0.2,8.8-2.7,10.8-6.7C1543,863.3,1542.9,860.1,1541.1,857.7z"/>
			</g>
			<path class="st58" d="M1412.6,725.1l-30.8-35.2h-42.4h-6.8l-7.7-6.7v-2.3h7.1l22.9-33.2v-18.1v-35.9c0-4.9,0.2-11.4,0.1-14.8
				c-0.8-20.3-22.7-24.5-22.7-24.5s-13.3,0-28.3,0c-10,0-21.8,0-29.5,0c-19.5,0-21.5,18-21.5,18v13.4v43.7v18.1l24.7,33.2h3.3v2.3
				l-12.4,6.7h-1.3h-24h-15.6l3.7,10.7l-28.8,22.5L1176,901.9h89h76.8h89L1412.6,725.1z"/>
		</g>
		<g>
			<g>
				<polygon class="st59" points="1086,815 1086,898 1095.9,898 1106,898 1106,815 1095.9,815 				"/>
				<polygon class="st59" points="1131.3,871.7 1127.5,846.1 1122.5,813.5 1122.5,813.5 1122.5,813.5 1114.4,814.7 1114.4,814.7 
					1106.3,815.9 1109.8,839.4 1109.8,839.4 1115,874.1 1115,874.1 1118.7,898.1 1134.9,895.6 				"/>
				<polygon class="st59" points="1065.2,777 1065.2,777 1059.2,777.6 1059.2,777.8 1059.2,777.8 1059.7,783.1 1059.7,783.4 
					1061,796 1047,796 1033,796 1033,799.5 1033,805.4 1033,815 1033,836.3 1033,850.9 1033,872.2 1033,886.9 1033,892.8 1033,898 
					1047,898 1061,898 1061,892.8 1061,886.9 1061,872.2 1061,850.9 1061,836.3 1061,815 1061,805.4 1061,799.5 1061,796.7 
					1071.1,898.5 1077.2,898 1077.2,898 1083.2,897.3 1071.2,776.4 				"/>
				<path class="st59" d="M1539.2,864c-1.1,2.1-3.6,4.3-7.2,4.8c0-0.5,0-1,0-1.5v-8.2c2-0.9,5.2-2.6,7.2,0
					C1540.1,860.3,1540.1,862.2,1539.2,864z M1542.1,856.9c-2.7-3.6-7.2-3.2-10.2-1.9v-4h-26.7H1478v16.3
					c0,12.8,10.7,22.7,23.6,22.7h-28.8c1.6,3,3.5,5,6.4,7h26.2h26.2c1.8-1,4.3-3,6.4-7h-29c11,0,20.2-7.4,22.6-17.7
					c4.6-0.2,8.8-2.7,10.8-6.7C1544.1,862.4,1543.9,859.3,1542.1,856.9z"/>
			</g>
			<path class="st59" d="M1413.7,725l-30.9-36h-42.4h-6.8l-7.7-6.7V680h7.1l22.9-33.2v-18.1v-35.4c0-4.9,0.2-11.5,0.1-14.9
				c-0.9-20.3-22.8-24.5-22.8-24.5s-13.3,0-28.3,0c-10,0-21.8,0-29.5,0c-19.5,0-21.5,17.7-21.5,17.7V585v43.7v18.1l24.7,33.2h3.3
				v2.3l-12.4,6.7h-1.3h-24h-15.6l4,11.3l-29,21.8L1177,901h89h76.8h89L1413.7,725z"/>
		</g>
		<g>
			<g>
				<polygon points="1087,814.2 1087,897.2 1096.9,897.2 1107,897.2 1107,814.2 1096.9,814.2 				"/>
				<polygon points="1132.3,870.8 1128.5,845.3 1123.6,812.6 1123.6,812.6 1123.6,812.6 1115.4,813.9 1115.4,813.9 1107.3,815.1 
					1110.8,838.6 1110.8,838.6 1116.1,873.3 1116.1,873.3 1119.7,897.2 1136,894.8 				"/>
				<polygon points="1066.2,776.1 1066.2,776.1 1060.2,776.7 1060.2,777 1060.2,777 1060.7,782.3 1060.8,782.6 1062,795.2 
					1048,795.2 1034,795.2 1034,798.7 1034,804.5 1034,814.2 1034,835.5 1034,850.1 1034,871.4 1034,886.1 1034,891.9 1034,897.2 
					1048,897.2 1062,897.2 1062,891.9 1062,886.1 1062,871.4 1062,850.1 1062,835.5 1062,814.2 1062,804.5 1062,798.7 1062,795.9 
					1072.2,897.7 1078.2,897.2 1078.2,897.2 1084.2,896.5 1072.2,775.6 				"/>
				<path d="M1540.2,863.2c-1.1,2.1-3.6,4.3-7.2,4.8c0-0.5,0-1,0-1.5v-8.2c2-0.9,5.2-2.6,7.2,0
					C1541.1,859.5,1541.2,861.3,1540.2,863.2z M1543.2,856.1c-2.7-3.6-7.2-3.2-10.2-1.9v-4h-26.7H1479v16.3
					c0,12.8,10.7,22.7,23.6,22.7h-28.8c1.6,3,3.5,5,6.4,7h26.2h26.2c1.8-1,4.3-3,6.4-7h-29c11,0,20.2-7.4,22.6-17.7
					c4.6-0.2,8.8-2.7,10.8-6.7C1545.1,861.6,1545,858.4,1543.2,856.1z"/>
			</g>
			<path d="M1414.8,724.9l-30.9-36.7h-42.4h-6.8l-7.7-6.7v-2.3h7.1L1357,646v-18v-35c0-4.9,0.2-11.6,0.1-15
				c-0.9-20.4-22.8-24.6-22.8-24.6s-13.3,0-28.3,0c-10,0-21.8,0-29.5,0c-19.5,0-21.5,17.5-21.5,17.5v13.4V628v18l24.7,33.2h3.3v2.3
				l-12.4,6.7h-1.3h-24h-15.6l4.4,11.8l-29.3,21.2l-26.8,179h89h76.8h89L1414.8,724.9z"/>
		</g>
	</g>
	<g>
		<rect x="1033.9" y="794.7" class="st27" width="28.2" height="102.5"/>
		<rect x="1048" y="794.7" class="st60" width="14.1" height="102.5"/>
		<rect x="1086.5" y="814.2" class="st28" width="20.8" height="83.1"/>
		<rect x="1096.9" y="814.2" class="st61" width="10.4" height="83.1"/>
		
			<rect x="1080.1" y="846.6" transform="matrix(0.1493 0.9888 -0.9888 0.1493 1799.4817 -381.8148)" class="st62" width="83.1" height="16.5"/>
		
			<rect x="1084.1" y="850.2" transform="matrix(0.1493 0.9888 -0.9888 0.1493 1802.3386 -386.2686)" class="st63" width="83.1" height="8.2"/>
		
			<rect x="1113.4" y="837.2" transform="matrix(-0.9888 0.1493 -0.1493 -0.9888 2358.3091 1532.5087)" class="st64" width="16.5" height="35.1"/>
		
			<rect x="1066.2" y="775.8" transform="matrix(-0.9951 9.900667e-002 -9.900667e-002 -0.9951 2222.0571 1562.7502)" class="st30" width="12.1" height="121.4"/>
		
			<rect x="1072.2" y="775.6" transform="matrix(-0.9951 9.894248e-002 -9.894248e-002 -0.9951 2227.8882 1562.129)" class="st65" width="6" height="121.4"/>
		
			<rect x="1063.8" y="773" transform="matrix(9.886638e-002 0.9951 -0.9951 9.886638e-002 1736.3054 -359.1925)" class="st66" width="5.3" height="12.1"/>
		<rect x="1033.9" y="814.2" class="st65" width="28.2" height="21.3"/>
		<rect x="1033.9" y="850.1" class="st65" width="28.2" height="21.3"/>
		<rect x="1033.9" y="798.7" class="st65" width="28.2" height="5.8"/>
		<rect x="1033.9" y="886.1" class="st65" width="28.2" height="5.8"/>
		<rect x="1088" y="823.8" class="st67" width="17.4" height="17"/>
		<rect x="1096.7" y="823.8" class="st26" width="8.7" height="17"/>
		<rect x="1088" y="873.1" class="st67" width="17.4" height="17"/>
		<rect x="1096.7" y="873.1" class="st26" width="8.7" height="17"/>
	</g>
	<g>
		<path class="st68" d="M1479.4,850.1v16.4c0,12.8,10.4,23.2,23.2,23.2h7.4c12.8,0,23.2-10.4,23.2-23.2v-16.4H1479.4z"/>
		<path class="st69" d="M1480.1,896.5h52.3c1.8-1,4.3-3.4,6.4-6.8h-65.1C1475.3,892.5,1477.2,894.4,1480.1,896.5z"/>
		<g>
			<path class="st70" d="M1531.9,871.7c-0.2,0-0.4,0-0.6,0l0.2-3.7c4.4,0.2,7.4-2.5,8.7-4.8c1-1.8,1-3.7,0.1-4.8
				c-2.5-3.2-7.6,0.2-7.8,0.4l-2.1-3c2.8-2,9.2-4.5,12.9,0.4c1.8,2.4,1.9,5.6,0.2,8.8C1541.3,869.1,1536.8,871.7,1531.9,871.7z"/>
		</g>
		<path class="st70" d="M1506.3,889.7h3.7c12.8,0,23.2-10.4,23.2-23.2v-16.4h-26.9L1506.3,889.7L1506.3,889.7z"/>
		<path class="st71" d="M1506.3,896.5h26.2c1.8-1,4.3-3.4,6.4-6.8h-32.5L1506.3,896.5L1506.3,896.5z"/>
	</g>
	<polygon class="st72" points="1341.5,688.2 1226.9,688.2 1196,724.9 1178,900.2 1343.8,900.2 	"/>
	<polygon class="st72" points="1269.3,688.2 1383.9,688.2 1414.8,724.9 1432.8,900.2 1267,900.2 	"/>
	<polygon class="st73" points="1283,679.2 1283,706.7 1306,710.2 1306,679.2 	"/>
	<path class="st74" d="M1287.3,599.2h-18.5c0,0-5.8-0.5-5.8,4.7v15.7c0,0,3,8.4-8,8.4v18l24.7,33.2h3.3h23v-25v-58.9
		C1301,597.4,1294.7,599.2,1287.3,599.2z"/>
	<path class="st72" d="M1276.5,553.4c-16,0-21.5,24.6-21.5,24.6v6.2V628c11,0,8-8.4,8-8.4v-15.7c0-5.2,5.8-4.7,5.8-4.7h18.5
		c7.4,0,13.7-1.8,18.7-3.9v-22.1v-19.8C1296,553.4,1284.2,553.4,1276.5,553.4z"/>
	<polygon class="st75" points="1327,706.7 1327,679.2 1306,679.2 1306,710.2 	"/>
	<path class="st73" d="M1347,622c0-8,0-33.1,0-33.1s0.2-6.7-4-6.7h-24c0,0-2,8.2-13,13.1v59.1v24.8h20.8h7.3L1357,646v-18
		C1357,628,1347,624.9,1347,622z"/>
	<path class="st76" d="M1334.3,553.4c0,0-13.3,0-28.3,0v42c11-4.9,13-13.1,13-13.1h24c4.2,0,4,6.7,4,6.7s0,25.1,0,33.1
		c0,2.9,10,5.9,10,5.9v-45.1c0-4.9,0-2.7,0-6.2C1357,558.4,1334.3,553.4,1334.3,553.4z"/>
	<polygon class="st77" points="1283,681.5 1270.6,688.2 1294.5,729.8 1306,710.2 	"/>
	<polygon class="st77" points="1328,681.5 1342.5,694.2 1316.5,729.8 1306,710.2 	"/>
	<g>
		<polygon class="st78" points="1306,710.2 1291.8,734.3 1299.2,741.2 1293.3,794.2 1305,794.2 		"/>
		<polygon class="st79" points="1306,710.2 1319.2,734 1310.7,741.2 1316.5,794.2 1305,794.2 		"/>
	</g>
	<g>
		<path class="st9" d="M1306,750.2h-85.8c-10.9,0-19.2,8.6-19.2,19.5v102.1c0,10.9,8.3,20.4,19.2,20.4h85.8V750.2z"/>
		<path class="st0" d="M1221.1,892.2h-17.7c-1,0-1.8,1.3-1.8,3s0.8,3,1.8,3H1306v-6H1221.1z"/>
		<path class="st9" d="M1389.7,892.2c10.9,0,21.3-9.5,21.3-20.4V769.7c0-10.9-10.5-19.5-21.3-19.5H1306v142H1389.7z"/>
		<path class="st0" d="M1389.7,892.2c10.9,0,21.3-9.5,21.3-20.4V769.7c0-10.9-10.5-19.5-21.3-19.5H1306v142H1389.7z"/>
		<path class="st9" d="M1408.3,895.2c0-1.7-0.8-3-1.8-3h-17.7H1306v6h100.5C1407.5,898.2,1408.3,896.9,1408.3,895.2z"/>
	</g>
	<g>
		<path class="st37" d="M1292.4,814.8c0,7.6,6.1,13.8,13.6,13.9v-27.8C1298.4,801.1,1292.4,807.2,1292.4,814.8z"/>
		<path class="st80" d="M1320.2,814.8c0-7.7-6.2-13.9-13.9-13.9c-0.1,0-0.2,0-0.3,0v27.8c0.1,0,0.2,0,0.3,0
			C1314,828.7,1320.2,822.5,1320.2,814.8z"/>
	</g>
	<g>
		<path class="st81" d="M1302,631.9c0,1.3-0.9,2.3-2,2.3h-30c-1.1,0-2-1.1-2-2.3v-13.3c0-1.3,0.9-2.3,2-2.3h30c1.1,0,2,1.1,2,2.3
			V631.9z"/>
		<path class="st81" d="M1343,631c0,1.2-0.9,2.3-2,2.3h-29c-1.1,0-2-1-2-2.3v-12.5c0-1.2,0.9-2.3,2-2.3h29c1.1,0,2,1,2,2.3V631z"/>
		<path class="st82" d="M1300,615.2h-30c-1.7,0-3,1.5-3,3.3v0.5v12.8v0.5c0,1.6,1.1,2.8,2.5,2.8h0.5h29.5h0.5c1.7,0,3-1.5,3-3.3
			v-13.3C1303,616.7,1301.7,615.2,1300,615.2z M1300,633.2h-30c-0.5,0-1-0.6-1-1.3v-13.3c0-0.7,0.5-1.3,1-1.3h29.5
			c0.8,0,1.5,0.8,1.5,1.8v12.8C1301,632.6,1300.5,633.2,1300,633.2z"/>
		<path class="st82" d="M1341,615.2h-30c-1.7,0-3,1.5-3,3.3v0.5v12.8v0.5c0,1.6,1.1,2.8,2.5,2.8h0.5h29.5h0.5c1.7,0,3-1.5,3-3.3
			v-13.3C1344,616.7,1342.7,615.2,1341,615.2z M1341,633.2h-30c-0.5,0-1-0.6-1-1.3v-13.3c0-0.7,0.5-1.3,1-1.3h29.5
			c0.8,0,1.5,0.8,1.5,1.8v12.8C1342,632.6,1341.5,633.2,1341,633.2z"/>
		<path class="st82" d="M1269,625c0,0.7-0.4,1.2-0.9,1.2H1256c-0.5,0-0.9-0.6-0.9-1.2v-0.5c0-0.7,0.4-1.2,0.9-1.2h12.1
			c0.5,0,0.9,0.6,0.9,1.2V625z"/>
		<path class="st82" d="M1357,625c0,0.7-0.4,1.2-0.9,1.2H1344c-0.5,0-0.9-0.6-0.9-1.2v-0.5c0-0.7,0.4-1.2,0.9-1.2h12.1
			c0.5,0,0.9,0.6,0.9,1.2V625z"/>
		<path class="st82" d="M1310,625c0,0.7-0.2,1.2-0.5,1.2h-6.9c-0.3,0-0.5-0.6-0.5-1.2v-0.5c0-0.7,0.2-1.2,0.5-1.2h6.9
			c0.3,0,0.5,0.6,0.5,1.2V625z"/>
	</g>
</g>
</svg>
